<svg width="325" height="276" viewBox="0 0 325 276" fill="none" xmlns="http://www.w3.org/2000/svg">
<g clip-path="url(#clip0_1546_1281)">
<path d="M25.9932 256.612C22.4025 244.612 16.5765 219.094 24.5952 189.028C27.7459 177.184 37.8934 139 74.1336 120.472C78.3487 118.343 107.699 103.859 140.589 114.128C184.266 127.759 179.079 167.739 223.182 182.166C251.687 191.483 271.386 180.534 287.196 198.019C294.195 205.892 298.436 215.832 299.276 226.333C300.116 236.833 297.509 247.321 291.851 256.207L25.9932 256.612Z" fill="#EDEDED"/>
<path d="M27.2205 217.121C28.4043 217.643 29.5354 218.278 30.5982 219.015C34.8559 221.932 35.374 224.692 39.3052 226.523C40.5196 227.084 41.8155 227.448 43.1443 227.602C45.3569 227.84 47.5941 227.521 49.6515 226.672C49.6515 226.672 53.0931 218.263 37.5099 214.467L36.9635 217.029L35.7146 214.978C34.6164 214.698 33.4762 214.624 32.351 214.758C30.4416 215.01 28.653 215.833 27.2205 217.121Z" fill="#7373EF"/>
<path d="M32.2377 188.027C33.161 191.004 34.858 193.683 37.1553 195.79C39.5538 197.919 41.193 198.032 44.7695 201.169C46.6855 202.844 47.9557 204.007 48.9208 205.888C50.0714 208.3 50.4363 211.013 49.9639 213.644C45.2293 213.129 40.7395 211.276 37.0205 208.301L38.5745 205.349L35.7361 207.038C33.8955 204.271 32.6363 201.159 32.0349 197.891C31.4335 194.623 31.5025 191.267 32.2377 188.027Z" fill="#7373EF"/>
<path d="M53.9661 201.091C42.2717 198.536 37.9217 186.43 37.9217 186.43C38.2623 185.791 43.4283 184.252 43.4283 184.252L36.616 183.294C36.616 183.294 35.3458 181.42 36.0412 177.304C36.7366 173.189 33.9124 167.498 33.9124 167.498C37.7659 168.364 41.4652 169.811 44.883 171.791C48.5021 173.92 53.9803 177.092 56.2369 183.301C56.6017 184.308 56.8655 185.349 57.0246 186.409L54.6829 189.673L57.2304 188.445C57.3153 192.879 56.1865 197.252 53.9661 201.091Z" fill="#7373EF"/>
<path d="M64.2983 207.577C64.2983 207.577 54.2572 188.858 80.2009 181.875C80.2009 181.875 77.3624 185.075 77.8024 191.313C78.2423 197.55 76.3831 198.572 76.3831 198.572L71.5364 197.927L75.5245 201.567C75.5245 201.567 70.3585 208.436 64.2983 207.577Z" fill="#7373EF"/>
<path d="M80.9315 213.8C80.9315 213.8 63.4536 207.903 64.1207 223.259C64.1207 223.259 69.6628 228.226 74.8643 220.683L73.445 217.788L75.8577 218.277C75.8577 218.277 79.1575 214.275 80.9315 213.8Z" fill="#7373EF"/>
<path d="M57.7343 238.416C57.6487 238.404 57.5715 238.358 57.5196 238.289C57.4677 238.22 57.4454 238.133 57.4576 238.047C60.0619 220.144 74.6729 215.283 74.8148 215.24C74.8958 215.214 74.9838 215.221 75.0597 215.259C75.1355 215.298 75.193 215.365 75.2193 215.446C75.2457 215.527 75.2388 215.615 75.2002 215.691C75.1616 215.767 75.0945 215.824 75.0135 215.851C74.8716 215.9 60.6438 220.648 58.0962 238.14C58.091 238.182 58.0774 238.222 58.0563 238.259C58.0352 238.296 58.007 238.328 57.9733 238.354C57.9396 238.38 57.9012 238.399 57.8601 238.409C57.8191 238.42 57.7763 238.422 57.7343 238.416Z" fill="#231F20"/>
<path d="M57.4363 241.873C57.3528 241.866 57.2755 241.826 57.2211 241.762C57.1666 241.699 57.1394 241.616 57.1453 241.532C58.1059 223.726 63.1643 206.382 71.9267 190.851C71.9466 190.814 71.974 190.78 72.0074 190.753C72.0407 190.727 72.0792 190.707 72.1205 190.696C72.1617 190.684 72.2049 190.682 72.2472 190.688C72.2895 190.694 72.3302 190.708 72.3666 190.731C72.4402 190.774 72.494 190.844 72.5166 190.926C72.5391 191.008 72.5286 191.096 72.4873 191.171C63.7693 206.608 58.7373 223.851 57.784 241.554C57.7822 241.596 57.7719 241.638 57.7537 241.677C57.7355 241.715 57.7098 241.75 57.678 241.778C57.6463 241.806 57.6092 241.828 57.5689 241.842C57.5286 241.856 57.4859 241.862 57.4434 241.859L57.4363 241.873Z" fill="#231F20"/>
<path d="M56.7053 248.969C56.6632 248.963 56.6227 248.948 56.5862 248.926C56.5497 248.905 56.5179 248.875 56.4928 248.841C56.4677 248.807 56.4497 248.768 56.4399 248.726C56.43 248.685 56.4286 248.642 56.4357 248.6C58.5318 235.385 58.1975 221.899 55.4493 208.804C53.6855 200.506 50.9636 192.44 47.3384 184.77C47.3038 184.691 47.3008 184.603 47.3298 184.522C47.3589 184.441 47.4179 184.375 47.4945 184.337C47.5325 184.318 47.574 184.307 47.6163 184.305C47.6587 184.302 47.7011 184.309 47.741 184.323C47.7808 184.338 47.8173 184.36 47.8481 184.39C47.8789 184.419 47.9035 184.454 47.9203 184.493C51.561 192.214 54.2924 200.332 56.0596 208.684C58.8131 221.852 59.1402 235.413 57.0247 248.699C57.0142 248.776 56.9758 248.845 56.9168 248.895C56.8578 248.945 56.7825 248.971 56.7053 248.969Z" fill="#231F20"/>
<path d="M57.2872 243.334C57.2057 243.327 57.1297 243.289 57.0745 243.229C57.0193 243.169 56.9889 243.09 56.9892 243.008C57.1879 234.492 55.8041 218.512 44.3651 207.222C42.5452 205.426 40.5481 203.818 38.4043 202.425C38.3338 202.377 38.2842 202.304 38.2658 202.221C38.2473 202.138 38.2613 202.051 38.3049 201.978C38.3515 201.906 38.4245 201.855 38.5081 201.836C38.5918 201.818 38.6794 201.833 38.752 201.878C40.9326 203.301 42.9652 204.939 44.8192 206.768C56.4286 218.228 57.8336 234.407 57.6349 243.029C57.635 243.071 57.6264 243.113 57.6099 243.152C57.5933 243.191 57.569 243.226 57.5385 243.255C57.508 243.284 57.4719 243.307 57.4324 243.322C57.3928 243.336 57.3507 243.343 57.3085 243.341L57.2872 243.334Z" fill="#231F20"/>
<path d="M58.8978 243.477C58.8289 243.471 58.7636 243.444 58.7123 243.397C58.6609 243.351 58.6263 243.289 58.614 243.221C57.5592 238.01 55.1514 233.168 51.6325 229.182C48.1136 225.196 43.6076 222.206 38.5673 220.513C38.5272 220.5 38.4902 220.479 38.4583 220.451C38.4265 220.423 38.4004 220.389 38.3816 220.351C38.3437 220.275 38.3377 220.186 38.365 220.105C38.3923 220.024 38.4506 219.958 38.5272 219.92C38.6037 219.882 38.6921 219.876 38.7731 219.903C43.9242 221.628 48.5293 224.68 52.1237 228.753C55.7182 232.826 58.1747 237.775 59.2455 243.101C59.2606 243.184 59.2433 243.27 59.1972 243.341C59.1511 243.412 59.0795 243.463 58.9972 243.484L58.8978 243.477Z" fill="#231F20"/>
<path d="M45.2236 239.765L48.3318 255.661H67.1295L70.2377 239.765H45.2236ZM66.4341 254.816H49.0343L46.2526 240.624H69.2158L66.4341 254.816Z" fill="#231F20"/>
<path d="M69.2159 240.616L66.4342 254.816H49.0344L46.2527 240.616H69.2159Z" fill="white"/>
<path d="M71.0392 240.198H44.4285L42.8958 234.982H72.5649L71.0392 240.198Z" fill="#231F20"/>
<path d="M303.972 256.697C303.999 257.116 303.859 257.529 303.582 257.846C303.306 258.162 302.915 258.356 302.496 258.386H14.4476C14.0475 258.322 13.6833 258.117 13.4203 257.809C13.1574 257.501 13.0129 257.109 13.0129 256.704C13.0129 256.299 13.1574 255.907 13.4203 255.598C13.6833 255.29 14.0475 255.086 14.4476 255.022H302.552C302.959 255.065 303.333 255.263 303.597 255.575C303.862 255.887 303.996 256.289 303.972 256.697Z" fill="#231F20"/>
<path d="M198.671 81.3431L199.26 81.0806H198.671V81.3431Z" fill="#FF94AF"/>
<path d="M179.668 69.677V143.768C179.672 145.987 178.795 148.117 177.231 149.691C175.666 151.264 173.542 152.154 171.323 152.163H73.5871C71.3687 152.154 69.2448 151.264 67.6815 149.69C66.1182 148.116 65.2434 145.986 65.2491 143.768V69.677C65.2472 67.4611 66.1237 65.3348 67.6865 63.7639C69.2494 62.1931 71.3712 61.3058 73.5871 61.2964H171.323C173.54 61.3039 175.663 62.1904 177.228 63.7615C178.792 65.3325 179.67 67.4599 179.668 69.677Z" fill="#7373EF"/>
<path d="M170.13 61.2891H70.9612C67.4536 61.2891 64.6101 64.1325 64.6101 67.6401V143.016C64.6101 146.523 67.4536 149.367 70.9612 149.367H170.13C173.638 149.367 176.481 146.523 176.481 143.016V67.6401C176.481 64.1325 173.638 61.2891 170.13 61.2891Z" fill="white"/>
<path d="M168.867 60.6499H72.2174C70.0311 60.6518 67.9349 61.5211 66.3889 63.0671C64.8429 64.6131 63.9736 66.7093 63.9717 68.8957V141.752C63.9736 143.938 64.8429 146.035 66.3889 147.581C67.9349 149.127 70.0311 149.996 72.2174 149.998H168.867C171.055 149.994 173.152 149.123 174.699 147.577C176.246 146.03 177.116 143.933 177.12 141.745V68.8957C177.116 66.7087 176.246 64.6124 174.698 63.0667C173.151 61.5209 171.054 60.6518 168.867 60.6499ZM175.843 141.752C175.841 143.602 175.105 145.375 173.798 146.682C172.49 147.99 170.717 148.726 168.867 148.728H72.2174C70.3686 148.726 68.5962 147.99 67.2896 146.682C65.9829 145.374 65.249 143.601 65.249 141.752V68.8957C65.2527 67.0487 65.9881 65.2784 67.2941 63.9724C68.6002 62.6663 70.3704 61.931 72.2174 61.9272H168.867C170.715 61.931 172.486 62.6661 173.793 63.9719C175.1 65.2778 175.837 67.048 175.843 68.8957V141.752Z" fill="#231F20"/>
<path d="M177.12 81.6049V72.9263H154.1C153.654 72.93 153.212 72.8454 152.799 72.6774C152.386 72.5093 152.01 72.2611 151.693 71.9471C151.377 71.633 151.125 71.2594 150.954 70.8477C150.782 70.436 150.694 69.9945 150.694 69.5485V60.6499H142.037V92.5827C142.037 93.4785 141.681 94.3377 141.047 94.9711C140.414 95.6046 139.555 95.9605 138.659 95.9605H118.761C117.865 95.9605 117.006 95.6046 116.373 94.9711C115.739 94.3377 115.383 93.4785 115.383 92.5827V61.9272H106.698V92.5543C106.698 93.4502 106.342 94.3093 105.708 94.9428C105.075 95.5762 104.216 95.9321 103.32 95.9321H63.9717V104.618H76.3332C77.2278 104.62 78.0852 104.976 78.7171 105.61C79.349 106.243 79.7039 107.101 79.7039 107.996V121.812C79.7039 122.706 79.349 123.565 78.7171 124.198C78.0852 124.831 77.2278 125.188 76.3332 125.19H64.6032V133.875H112.148C112.471 133.876 112.786 133.972 113.054 134.152C113.323 134.332 113.532 134.587 113.655 134.885C113.778 135.184 113.809 135.512 113.746 135.829C113.682 136.146 113.526 136.436 113.297 136.664L99.9422 149.998H112.233L113.51 148.721L125.637 136.586C127.38 134.849 129.741 133.874 132.201 133.875H176.687V125.161H154.1C153.204 125.161 152.345 124.805 151.712 124.172C151.078 123.538 150.722 122.679 150.722 121.783V84.9543C150.722 84.0585 151.078 83.1993 151.712 82.5659C152.345 81.9324 153.204 81.5765 154.1 81.5765L177.12 81.6049ZM88.418 121.812V107.996C88.418 107.1 88.7739 106.241 89.4073 105.607C90.0408 104.974 90.8999 104.618 91.7958 104.618H138.631C139.526 104.618 140.386 104.974 141.019 105.607C141.652 106.241 142.008 107.1 142.008 107.996V121.812C142.001 122.703 141.642 123.555 141.009 124.182C140.376 124.809 139.521 125.161 138.631 125.161H91.7958C90.9012 125.167 90.0408 124.817 89.4036 124.189C88.7663 123.562 88.4042 122.706 88.3967 121.812H88.418Z" fill="#231F20"/>
<path d="M106.939 33.401C104.558 31.0221 101.726 29.1423 98.6088 27.8718C95.4918 26.6013 92.1526 25.9656 88.7868 26.002C85.421 26.0383 82.0963 26.746 79.0075 28.0835C75.9187 29.421 73.1278 31.3615 70.7984 33.7913C61.2257 43.7827 61.7579 59.7349 71.508 69.5206L88.1202 86.1327C88.3701 86.381 88.7081 86.5204 89.0604 86.5204C89.4127 86.5204 89.7507 86.381 90.0007 86.1327L106.939 69.1941C111.678 64.4506 114.339 58.0201 114.339 51.3153C114.339 44.6105 111.678 38.18 106.939 33.4365V33.401ZM90.618 60.3665C88.687 60.7056 86.6981 60.4206 84.94 59.5529C83.1819 58.6853 81.7459 57.28 80.8404 55.5411C79.9349 53.8021 79.6069 51.8199 79.9042 49.882C80.2014 47.9441 81.1083 46.1512 82.4933 44.7636C83.8784 43.3759 85.6695 42.4656 87.6068 42.1647C89.5442 41.8638 91.527 42.188 93.2677 43.0902C95.0084 43.9924 96.4163 45.4258 97.2873 47.1822C98.1583 48.9387 98.447 50.9271 98.1116 52.8587C97.7833 54.7243 96.8887 56.4435 95.5493 57.7829C94.2099 59.1223 92.4907 60.0169 90.6251 60.3452L90.618 60.3665Z" fill="#7373EF"/>
</g>
<path d="M212.17 53.0328L209.038 64.4449C190.408 59.1646 183.826 44.9926 183.826 44.9926C183.826 44.9926 196.668 36.3331 215.3 41.6178L212.17 53.0328Z" fill="#C9C3C3"/>
<g clip-path="url(#clip1_1546_1281)">
<path d="M250.191 236.75L250.137 237.045L249.137 242.545L249.1 242.75H243.163L243.142 242.522L242.642 237.022L242.618 236.75H250.191Z" fill="white" stroke="black" stroke-width="0.5"/>
<path d="M203.409 236.251L210.409 236.751L210.687 236.771L210.637 237.045L209.637 242.545L209.596 242.77L209.369 242.749L203.869 242.249L203.661 242.23L203.642 242.022L203.142 236.522L203.116 236.229L203.409 236.251Z" fill="white" stroke="black" stroke-width="0.5"/>
<path d="M202.693 243.721C202.693 243.721 201.456 246.761 200.413 247.966C199.371 249.171 195.376 251.323 195.355 254.901C195.331 258.781 202.086 257.705 204.728 257.562C207.371 257.42 207.57 255.348 208.682 253.151C209.794 250.954 210.915 251.326 211.123 249.555C211.331 247.783 210.272 243.817 210.272 243.817L202.693 243.721Z" fill="#231F20"/>
<path d="M286.51 84.7788C286.51 84.7788 273.175 105.756 268.688 104.671C266.615 104.168 260.44 99.4438 257.822 96.0389C254.971 92.3393 251.645 87.1238 249.563 83.459C249.563 83.459 240.778 70.3912 248.276 65.3354C248.276 65.3354 252.792 66.4811 255.326 69.205C257.859 71.9289 259.137 76.0772 259.808 77.5378C260.479 78.9985 268.218 91.9734 268.698 92.2739C269.179 92.5745 272.725 89.5152 274.869 87.0367C278.027 83.382 280.934 79.196 280.934 79.196L286.51 84.7788Z" fill="#231F20"/>
<path d="M206.915 123.485C206.915 123.485 187.467 102.821 187.01 98.147C186.798 95.985 189.573 89.1999 191.87 85.5656C192.626 84.3677 193.439 83.167 194.255 82.0097C197.519 77.3837 200.826 73.4925 200.826 73.4925C200.826 73.4925 209.161 61.2668 216.308 66.8337C216.308 66.8337 216.491 71.0081 214.794 74.3404C213.447 76.9437 211.719 79.3314 209.667 81.4246C208.536 82.547 198.632 95.3156 198.51 95.8775C198.388 96.4395 201.528 102.789 203.403 105.487C206.077 109.337 211.484 118.554 211.484 118.554L206.915 123.485Z" fill="#231F20"/>
<path d="M249.69 243.925C249.69 243.925 250.949 246.922 251.995 248.104C253.04 249.286 257.02 251.377 257.077 254.928C257.141 258.772 250.437 257.779 247.817 257.668C245.198 257.558 244.979 255.505 243.854 253.341C242.728 251.178 241.622 251.558 241.397 249.804C241.172 248.05 242.216 244.107 242.216 244.107L249.69 243.925Z" fill="#231F20"/>
<path d="M250.164 242.553L249.973 244.621C249.973 244.621 246.3 246.073 242.219 244.708V242.107L250.164 242.553Z" fill="#231F20"/>
<path d="M210.387 242.553L210.197 244.621C210.197 244.621 206.774 245.6 202.693 244.233V241.069L210.387 242.553Z" fill="#231F20"/>
<path d="M206 68.7487L211.967 90.4281C212.172 91.1294 212.416 91.9955 212.676 93.0016L212.685 93.0396L212.693 93.0658C213.688 96.9298 214.921 102.822 215.287 109.368C215.536 113.829 215.31 128.032 215.31 128.032C215.31 128.032 223.593 131.11 237.094 130.235C237.094 130.235 251.788 133.968 250.603 124.945C247.467 101.058 250.534 91.2096 250.945 88.8125C250.945 88.8125 252.588 77.3021 254 67.5822C249.91 66.0395 232.769 60 232.769 60L223.295 60.105C223.295 60.105 209.973 64.1206 206 68.7487Z" fill="#231F20"/>
<path d="M213.285 95.2433C213.285 95.2433 218.858 92.589 220.784 83.6275L240.446 83.4097C240.446 83.4097 246.329 95.3289 249.504 95.9649C249.504 95.9649 248.884 109.052 249.281 114.107C249.677 119.163 250.868 128.723 250.868 128.723C250.868 128.723 249.745 137.451 215.084 131.512C215.084 131.512 215.459 110.508 215.403 109.611C215.348 108.713 213.43 95.7732 213.285 95.2433Z" fill="#231F20"/>
<path d="M220.822 83.6272C220.822 83.6272 218.512 71.451 213.458 64.361C213.458 64.361 213.944 63.77 215.252 63.5493C215.252 63.5493 220.739 71.5265 222.929 83.5996C225.119 95.6728 220.822 83.6272 220.822 83.6272Z" fill="#231F20"/>
<path d="M240.248 83.4068C240.248 83.4068 241.584 72.4153 246.492 65.2135C245.835 64.8201 245.105 64.5642 244.347 64.4614C244.347 64.4614 240.075 71.3118 238.141 83.43C236.207 95.5482 240.248 83.4068 240.248 83.4068Z" fill="#231F20"/>
<path d="M206.141 195.933C206.09 191.196 212.849 150.167 212.965 148.585C213.063 147.189 214.399 138.276 215.088 131.506C215.379 128.618 215.746 125.182 215.746 125.182C215.746 125.182 224.25 123.374 233.415 122.994C238.642 122.777 245.612 122.956 250.355 125.121C250.538 126.324 251.255 131.422 251.341 132.019C253.084 144.468 252.358 160.883 252.681 171.476C253.047 183.545 252.671 194.802 252.599 198.217C252.568 199.568 251.183 238.44 251.183 238.44C251.183 238.44 251.181 238.408 240.493 238.44L240.684 241.692L239.348 218.846L239.278 217.633C238.697 207.413 238.15 197.532 238.133 195.797C238.066 189.599 233.89 153.883 232.528 153.739C231.166 153.595 223.193 189.167 221.631 198.56C221.631 198.56 216.512 228.365 213.024 238.829C199.891 237.649 201.391 237.649 201.391 237.649C201.391 237.649 206.198 200.673 206.141 195.933Z" fill="#231F20"/>
<path d="M250.962 124.45C250.962 124.45 230.993 128.62 214.372 124.856L214.31 122.411C214.31 122.411 230.427 125.987 250.697 122.006L250.962 124.45Z" fill="#97BCFF"/>
<path d="M214.184 117.623L214.209 118.537L214.229 119.263L214.252 120.068C229.409 123.5 247.417 120.332 250.463 119.748C250.376 118.927 250.292 118.106 250.209 117.302C230.147 121.147 214.184 117.623 214.184 117.623Z" fill="#97BCFF"/>
<path d="M211.489 118.549C211.489 118.549 210.807 121.337 206.915 123.486C206.915 123.486 196.235 111.664 195.016 110.187L204.37 106.922C204.37 106.922 209.311 114.619 211.489 118.549Z" fill="#231F20"/>
<path d="M282.762 81.2705L285.224 83.5479L287.678 81.5532L289.311 78.7994L290.5 75L288.926 73.4115L287.522 73.941L286.701 73.1819L287.422 70.9615L287 70.5L285 71L284.73 70.9084L282.921 73.1944L282.982 74.7743L283.044 76.3542L283.282 78.402L281.764 80.0436L282.762 81.2705Z" fill="white"/>
<path d="M281.252 79.8619C281.262 79.7976 281.287 79.7365 281.324 79.6829C281.361 79.6293 281.409 79.5847 281.466 79.5523C282.083 79.2419 282.569 78.7218 282.837 78.0852C283.023 77.402 282.978 76.6768 282.711 76.0213C282.604 75.6829 282.521 75.337 282.465 74.9864C282.197 73.1967 282.192 72.6763 284.5 70.4998C284.638 70.2963 284.781 72.6122 285 72.5001C285.219 72.388 285.255 72.4927 285.5 72.4997C285.747 72.5399 286.304 70.8454 286.5 70.9998C286.696 71.1541 286.135 71.5598 286.232 71.7897C286.641 72.5596 287.999 70.7531 287.663 71.5244C287.443 71.999 287.269 72.4935 287.143 73.001C286.683 75.1757 286.94 73.1046 287.33 73.1948C287.508 73.2381 288.355 73.3858 288.524 73.1607C288.923 72.6455 289.504 74.7632 290 74.9999C290.113 75.0595 290.431 74.3921 290.5 74.4999C290.569 74.6077 291.493 74.3718 291.5 74.4996C291.509 76.5469 289.465 80.276 288.071 81.7749C287.595 82.2256 287.096 82.6515 286.576 83.051C286.165 83.3674 286.023 83.6929 285.543 84.0179C285.453 84.0776 284.958 84.1803 284.851 84.166C284.744 84.1517 284.646 84.0991 284.575 84.0179L281.959 82.0594C281.934 82.0153 281.267 80.1472 281.256 80.0978C281.233 80.0211 281.231 79.9394 281.252 79.8619ZM286.074 82.35C286.793 81.7821 287.363 81.2702 287.495 81.127C288.564 79.9236 290.028 76.6712 290.176 75.0689L291 74.4996C290.534 75.1078 287.851 74.2365 287.107 74.0421C285.887 73.7307 285.831 74.9629 286.287 72.8235C286.415 72.2556 286.605 71.7034 286.853 71.177C287.176 70.4362 287.058 71.1211 286.853 70.7575C286.01 72.896 286.574 70.5718 286.5 70.4998C286.426 70.4277 286.331 70.6218 286.232 70.5905C285.53 71.8408 284.936 72.0001 285.504 70.7575C285.423 70.8103 284.852 71.3979 285.5 70.5C283.768 72.946 285.026 70.9811 285 70.9999C282.898 72.9801 283.11 73.3694 283.326 74.8649C283.378 75.1756 283.451 75.4823 283.546 75.7828C283.88 76.6088 283.926 77.5232 283.677 78.3788C283.421 79.0506 282.963 79.6264 282.366 80.0268L285.035 83.1237C285.381 82.8859 285.727 82.628 286.074 82.35Z" fill="#231F20"/>
</g>
<path d="M235.476 60.0871L236.737 60.7015C236.841 60.7501 236.923 60.839 236.966 60.95C237.01 61.061 237.011 61.1855 236.971 61.2976C236.329 62.9946 235.22 64.4467 233.789 65.464C232.358 66.4813 230.671 67.0165 228.949 66.9996C227.227 66.9828 225.549 66.4147 224.136 65.3696C222.723 64.3245 221.64 62.851 221.028 61.1417C221.007 61.084 220.998 61.0225 221 60.9609C221.003 60.8993 221.017 60.8389 221.042 60.7833C221.067 60.7276 221.102 60.6779 221.146 60.6371C221.189 60.5962 221.24 60.5651 221.295 60.5457L222.427 60.1238C222.666 60.0374 222.927 60.0476 223.159 60.1525C223.392 60.2574 223.58 60.4496 223.688 60.6924C224.167 61.723 224.908 62.5906 225.828 63.1973C226.747 63.804 227.808 64.1255 228.891 64.1255C229.974 64.1255 231.035 63.804 231.954 63.1973C232.874 62.5906 233.615 61.723 234.095 60.6924C234.148 60.556 234.225 60.4321 234.324 60.3278C234.422 60.2235 234.538 60.1408 234.667 60.0845C234.795 60.0283 234.933 59.9996 235.072 60C235.211 60.0005 235.348 60.0301 235.476 60.0871Z" fill="#231F20"/>
<g clip-path="url(#clip2_1546_1281)">
<path d="M251 126.307C251 126.307 230.911 130.502 214.19 126.716L214.127 124.256C214.127 124.256 230.341 127.853 250.733 123.848L251 126.307Z" fill="#97BCFF"/>
<path d="M214 119.438L214.025 120.358L214.045 121.088L214.069 121.897C229.317 125.351 247.433 122.163 250.498 121.576C250.41 120.749 250.325 119.924 250.242 119.115C230.059 122.983 214 119.438 214 119.438Z" fill="#97BCFF"/>
</g>
<path d="M301.192 74.041L300.394 77.5693L211.5 54.5L212.5 51L301.192 74.041Z" fill="#8A664D"/>
<mask id="mask0_1546_1281" style="mask-type:alpha" maskUnits="userSpaceOnUse" x="280" y="68" width="14" height="10">
<rect x="281.45" y="68.9321" width="12" height="6" transform="rotate(13.5557 281.45 68.9321)" fill="#D9D9D9"/>
</mask>
<g mask="url(#mask0_1546_1281)">
<path d="M288.958 72.4533C288.276 73.2166 287.987 73.5285 287.577 73.6079C287.002 73.7079 286.263 73.396 285.117 72.5633C284.648 72.272 284.303 71.9149 284.105 71.5159C284.055 71.3821 283.676 70.2109 284.725 69.5298C284.898 69.3975 285.136 69.2999 285.397 69.2546C285.451 69.249 285.505 69.2506 285.554 69.2592C285.895 69.3063 285.739 69.0511 285.976 69.1947C286.203 69.2981 288.698 69.9479 289.013 70.064C289.589 70.2785 289.207 70.2786 289.889 70.3712C290.236 70.4475 289.44 70.3939 289.579 70.4367C289.616 70.4632 289.867 70.3385 289.889 70.3712C290.053 70.5693 289.897 71.4025 288.958 72.4533Z" fill="white"/>
<path d="M290.614 71.3015C290.451 71.7686 290.167 72.2274 289.772 72.6604C289.02 73.5131 288.597 73.9839 287.733 74.1262C287.534 74.1599 287.331 74.1745 287.134 74.1695C286.222 74.1425 285.374 73.6697 284.372 72.9379C283.822 72.6 283.424 72.1814 283.207 71.7129C283.098 71.4452 282.646 70.0785 284.077 69.195C284.398 68.9649 284.829 68.798 285.295 68.7223C285.63 68.6958 285.961 68.7136 286.263 68.7744C286.565 68.8353 290.075 69.8834 290.286 70.0199C290.52 70.1334 287.523 69.2918 287.782 69.3861C286.263 68.7744 286.263 68.7744 289.446 69.7915C289.764 69.8198 290.054 69.8985 290.286 70.0199C290.376 70.0794 290.45 70.1466 290.508 70.2198C290.718 70.5525 290.755 70.9278 290.614 71.3015ZM289.656 70.51C289.634 70.4774 289.604 70.4474 289.567 70.4209C289.428 70.3781 289.277 70.348 289.118 70.3313C287.283 69.8495 288.129 70.1613 287.315 69.8611C286.999 69.7449 286.649 69.6375 286.422 69.5341C286.185 69.3905 285.883 69.2905 285.542 69.2435C285.493 69.2348 285.439 69.2332 285.385 69.2388C285.124 69.2842 284.886 69.3817 284.713 69.514C283.664 70.1951 284.06 71.3668 284.093 71.5001C284.291 71.8991 284.636 72.2563 285.105 72.5476C286.251 73.3802 286.99 73.6921 287.565 73.5921C287.975 73.5127 288.264 73.2008 288.946 72.4375C289.896 71.4024 289.832 70.7238 289.681 70.5108L289.656 70.51Z" fill="#231F20"/>
</g>
<path d="M299.645 75.3343C300.909 72.5842 304.989 67.784 311.38 69.2839L312.424 69.5293L308.536 86.7047L307.492 86.4593C301.103 84.9565 299.497 78.8161 299.544 75.78V75.5463L299.645 75.3343ZM309.841 71.2266C304.835 70.6749 302.239 75.0018 301.691 76.0472C301.753 77.247 302.01 78.4288 302.451 79.5464C303.335 81.7549 304.843 83.2577 306.944 84.0258L309.841 71.2266Z" fill="#4A3F3F"/>
<path d="M302.086 74.2465L301.298 77.7893L294 76.06L294.796 72.5317L302.086 74.2465Z" fill="#4A3F3F"/>
<path d="M230.818 69.5036L222.527 66.7506C222.433 66.7205 222.352 66.6593 222.297 66.5772C222.243 66.4951 222.217 66.3968 222.226 66.2984L223.154 56.2228C221.432 56.7702 220.052 56.7305 219.036 56.1117C217.926 55.4215 216.87 53.93 217.331 44.0924C217.45 41.6091 217.64 39.1259 217.894 36.7062C217.906 36.5917 217.963 36.4866 218.052 36.4138C218.141 36.341 218.255 36.3064 218.37 36.3175L225.558 36.9363L232.753 37.4282C232.848 37.4332 232.938 37.4694 233.01 37.5311C233.082 37.5929 233.131 37.6766 233.15 37.7693L234.285 42.5294C234.645 42.453 235.018 42.4509 235.379 42.5232C235.741 42.5955 236.083 42.7407 236.387 42.9499C236.684 43.1776 236.928 43.4673 237.102 43.7988C237.276 44.1304 237.376 44.4959 237.395 44.8698C237.514 46.3376 236.284 47.8846 234.316 48.7811C234.023 51.6652 233.983 54.5694 234.197 57.4604C234.399 60.1958 234.823 62.9102 235.467 65.5765C235.486 65.6553 235.483 65.7379 235.457 65.8149C235.432 65.892 235.386 65.9605 235.324 66.0128L231.246 69.4798C231.166 69.5472 231.065 69.5838 230.96 69.5829C230.908 69.5654 230.86 69.5385 230.818 69.5036ZM233.348 57.4684C233.133 54.4418 233.183 51.4022 233.499 48.3844C233.506 48.3047 233.535 48.2285 233.583 48.1641C233.63 48.0998 233.695 48.0497 233.769 48.0195C235.522 47.2896 236.641 46.0282 236.554 44.846C236.543 44.5979 236.479 44.3548 236.367 44.1332C236.255 43.9115 236.097 43.7164 235.903 43.5608C235.641 43.4028 235.347 43.3052 235.042 43.275C234.737 43.2449 234.43 43.2828 234.142 43.3863C234.086 43.4119 234.025 43.4252 233.963 43.4252C233.902 43.4252 233.841 43.4119 233.785 43.3863C233.731 43.3558 233.683 43.3148 233.645 43.2658C233.607 43.2168 233.579 43.1606 233.563 43.1007L232.404 38.2374L225.526 37.7614L218.719 37.1822C218.489 39.4512 218.322 41.7678 218.211 44.0844C217.791 53.0176 218.632 54.7789 219.496 55.3104C220.393 55.8658 221.734 55.8023 223.463 55.128C223.532 55.1014 223.607 55.0926 223.68 55.1023C223.754 55.112 223.824 55.1399 223.884 55.1835C223.942 55.2311 223.988 55.2919 224.019 55.3608C224.049 55.4298 224.063 55.505 224.058 55.5802L223.098 66.0128L230.826 68.5754L234.507 65.4019C233.914 62.7917 233.527 60.139 233.348 57.4684Z" fill="#231F20"/>
<path d="M219.266 55.707C219.893 56.0878 221.154 56.5003 223.653 55.5562L223 63.5C223 63.5 226 66.5 229 66.5C232 66.5 234.5 63.5 234.5 63.5C233.5 58 233.307 54.18 233.912 48.4239C235.847 47.6306 237.085 46.1867 236.966 44.8538C236.951 44.5488 236.872 44.2503 236.736 43.9772C236.599 43.7041 236.408 43.4623 236.173 43.2671C235.853 43.063 235.491 42.9354 235.114 42.8941C234.737 42.8529 234.355 42.899 233.999 43.0291C233.586 41.3075 233.206 39.578 232.769 37.8564L225.565 37.3566L218.37 36.7378C218.179 38.5466 217.957 41.0695 217.814 44.0922C217.323 53.7394 218.354 55.1437 219.266 55.707Z" fill="white"/>
<path d="M217.211 39.1418C214.347 36.7617 213.84 35.0718 214.038 33.8897C214.332 32.0571 216.616 29.8039 216.593 29.8436C219.465 27.3842 221.749 26.9558 223.297 27.0034C225.78 27.0907 226.065 28.4076 229.913 29.1137C233.142 29.7087 234.435 29.0503 235.847 30.2879C236.585 30.9384 236.95 31.8746 237.68 33.8501C238.41 35.8255 238.823 36.8886 238.664 38.0311C238.364 39.6352 237.524 41.0884 236.284 42.1486C235.457 42.7024 234.776 43.4483 234.3 44.3224C234.109 44.7395 233.983 45.1837 233.928 45.6394C233.43 44.432 233.12 43.1559 233.007 41.855C232.973 41.3267 232.973 40.7967 233.007 40.2683C233.017 40.0187 232.937 39.7738 232.781 39.5786C232.625 39.3833 232.404 39.2508 232.158 39.2052C229.881 38.7689 224.907 40.4508 219.012 39.5622C218.405 39.4537 217.804 39.3133 217.211 39.1418Z" fill="#231F20"/>
<path d="M228.096 45.8456C228.001 46.52 227.612 47.0198 227.24 46.9642C226.867 46.9087 226.645 46.3216 226.748 45.6473C226.851 44.9729 227.232 44.4731 227.605 44.5286C227.977 44.5842 228.2 45.1712 228.096 45.8456Z" fill="#231F20"/>
<path d="M221.678 45.0522C221.575 45.7186 221.186 46.2263 220.813 46.1708C220.44 46.1153 220.218 45.5282 220.321 44.8538C220.425 44.1795 220.813 43.6797 221.186 43.7273C221.559 43.7749 221.781 44.3778 221.678 45.0522Z" fill="#231F20"/>
<path d="M221.821 51.0264C223.193 51.3561 224.592 51.5553 226.002 51.6214C225.927 51.8832 225.8 52.1271 225.628 52.3384C225.456 52.5498 225.244 52.7241 225.003 52.8509C224.762 52.9777 224.497 53.0543 224.226 53.0762C223.955 53.098 223.682 53.0646 223.423 52.978C222.976 52.8788 222.576 52.6326 222.285 52.2788C221.995 51.925 221.831 51.484 221.821 51.0264Z" fill="#231F20"/>
<path d="M229.889 44.251C229.963 44.2493 230.034 44.2273 230.096 44.1875C230.136 44.162 230.17 44.1284 230.197 44.089C230.224 44.0496 230.242 44.005 230.251 43.9582C230.26 43.9114 230.26 43.8632 230.249 43.8167C230.239 43.7702 230.219 43.7263 230.191 43.6877C229.803 43.1249 229.259 42.6877 228.627 42.4298C227.994 42.1718 227.299 42.1044 226.629 42.2359C226.583 42.2479 226.54 42.2688 226.502 42.2974C226.464 42.326 226.433 42.3617 226.409 42.4026C226.385 42.4435 226.369 42.4887 226.363 42.5357C226.356 42.5826 226.359 42.6304 226.371 42.6762C226.383 42.722 226.404 42.7651 226.432 42.8028C226.461 42.8406 226.497 42.8724 226.538 42.8963C226.579 42.9202 226.624 42.9359 226.671 42.9424C226.718 42.9488 226.765 42.946 226.811 42.934C227.336 42.8399 227.878 42.8991 228.37 43.1045C228.862 43.3099 229.285 43.6529 229.588 44.0923C229.621 44.1413 229.666 44.1814 229.719 44.209C229.772 44.2367 229.83 44.2511 229.889 44.251Z" fill="#231F20"/>
<path d="M223.13 42.8622C223.181 42.8627 223.231 42.8524 223.278 42.8319C223.324 42.8113 223.366 42.7811 223.4 42.7432C223.434 42.7106 223.462 42.6712 223.481 42.6276C223.499 42.5839 223.509 42.5369 223.509 42.4893C223.509 42.4418 223.499 42.3948 223.481 42.3511C223.462 42.3074 223.434 42.2681 223.4 42.2355C221.726 40.7757 219.647 41.8864 219.56 41.934C219.517 41.9547 219.479 41.9841 219.448 42.0204C219.418 42.0566 219.395 42.0988 219.381 42.1444C219.368 42.19 219.364 42.2378 219.37 42.2849C219.376 42.332 219.392 42.3773 219.417 42.4179C219.465 42.5021 219.545 42.5641 219.638 42.5908C219.731 42.6175 219.831 42.6067 219.917 42.5607C220.384 42.3038 220.916 42.1874 221.448 42.2254C221.98 42.2634 222.49 42.4542 222.916 42.775C222.977 42.8243 223.051 42.8546 223.13 42.8622Z" fill="#231F20"/>
<path d="M224.328 49.8121C224.402 49.8119 224.475 49.789 224.536 49.7465C224.597 49.7039 224.643 49.6438 224.669 49.5741C224.685 49.5293 224.692 49.4818 224.69 49.4342C224.688 49.3867 224.676 49.3401 224.655 49.2972C224.634 49.2544 224.605 49.2161 224.569 49.1846C224.534 49.1531 224.492 49.1291 224.447 49.114L222.59 48.4713C224.407 45.4645 224.431 45.3931 224.447 45.3455C224.462 45.3007 224.468 45.2534 224.464 45.2064C224.46 45.1593 224.448 45.1135 224.426 45.0714C224.405 45.0294 224.375 44.992 224.339 44.9614C224.303 44.9308 224.262 44.9077 224.217 44.8933C224.131 44.8632 224.038 44.866 223.954 44.9012C223.87 44.9364 223.803 45.0014 223.765 45.0837C223.662 45.2741 222.495 47.2178 221.734 48.4872C221.71 48.5353 221.698 48.5882 221.698 48.6419C221.698 48.6956 221.71 48.7485 221.734 48.7966C221.754 48.8453 221.785 48.8894 221.823 48.9262C221.861 48.963 221.906 48.9918 221.956 49.0108L224.233 49.8042C224.264 49.8115 224.296 49.8142 224.328 49.8121Z" fill="#231F20"/>
<path d="M206.198 67.8297C211.135 69.2817 211.348 88.3171 211.348 88.3171C211.348 88.3171 212.732 93.0375 213.313 97.2758C213.625 99.5438 213.953 109.167 214.184 117.619L214.209 118.534L214.229 119.26C214.409 125.893 214.528 131.413 214.528 131.413C214.528 131.413 219.298 134.538 232.316 134.298C232.316 134.298 245.911 133.341 251.69 131.05C251.69 131.05 251.052 125.387 250.463 119.745C250.376 118.923 250.292 118.103 250.209 117.299C249.901 114.261 249.628 111.475 249.529 109.877C249.2 104.954 250.691 89.1346 250.691 89.1346C248.638 71.4539 252.661 67.156 252.661 67.156C248.673 64.7661 236 60.5 236 60.5C233.131 73.2077 229.332 76.7696 229.332 76.7696C224.015 71.3827 221.5 60.5 221.5 60.5C212.508 62.299 206.198 67.8297 206.198 67.8297Z" fill="#7373EF"/>
<g clip-path="url(#clip3_1546_1281)">
<path d="M251 126.562C251 126.562 230.911 130.757 214.19 126.971L214.127 124.511C214.127 124.511 230.341 128.109 250.733 124.104L251 126.562Z" fill="#97BCFF"/>
<path d="M214 119.693L214.025 120.614L214.045 121.344L214.069 122.153C229.317 125.606 247.433 122.419 250.498 121.832C250.41 121.005 250.325 120.18 250.242 119.371C230.059 123.239 214 119.693 214 119.693Z" fill="#97BCFF"/>
</g>
<path d="M208.561 121.638L210.739 119.087L213.41 120.78L215.355 123.323L215.844 125.505L214.994 124.779L213.538 124.418L212.812 125.268L213.06 128.421L214.399 131.329L214.644 132.42L213.918 133.27L211.732 131.698L209.667 129.64L209.543 128.063L209.418 126.487L209.415 124.426L207.714 122.974L208.561 121.638Z" fill="white"/>
<path d="M207.227 123.214C207.245 123.276 207.276 123.334 207.319 123.383C207.362 123.432 207.416 123.47 207.476 123.496C208.125 123.732 208.669 124.191 209.01 124.792C209.274 125.449 209.315 126.174 209.127 126.856C209.06 127.205 209.019 127.558 209.004 127.913C208.948 129.722 210.215 131.597 212.762 133.488C212.923 133.674 213.128 133.816 213.358 133.902C213.588 133.988 213.836 134.014 214.079 133.978C214.319 133.909 214.538 133.781 214.715 133.604C214.891 133.428 215.02 133.21 215.09 132.97C215.406 132.157 214.996 131.467 214.572 130.741C214.298 130.295 214.067 129.825 213.882 129.336C213.17 127.23 213.567 125.17 213.944 125.035C214.115 124.971 214.707 125.584 214.901 125.787C215.358 126.252 215.78 126.692 216.246 126.399C216.351 126.326 216.436 126.228 216.492 126.113C216.547 125.997 216.572 125.87 216.564 125.742C216.332 123.708 215.335 121.838 213.774 120.513C213.248 120.122 212.703 119.757 212.14 119.422C211.637 119.109 211.121 118.817 210.607 118.551C210.511 118.502 210.4 118.49 210.296 118.517C210.191 118.543 210.1 118.607 210.039 118.696L207.24 122.832C207.22 122.879 207.208 122.928 207.203 122.979C207.189 123.058 207.197 123.139 207.227 123.214ZM211.724 120.177C212.504 120.656 213.13 121.098 213.279 121.224C214.481 122.294 215.31 123.72 215.645 125.293L215.535 125.176C215.001 124.627 214.338 123.939 213.623 124.22C212.448 124.672 212.349 127.541 213.054 129.612C213.247 130.161 213.5 130.687 213.809 131.181C214.216 131.879 214.423 132.265 214.262 132.65C214.239 132.751 214.193 132.846 214.128 132.926C214.063 133.006 213.98 133.07 213.885 133.113C213.788 133.112 213.693 133.09 213.606 133.047C213.519 133.004 213.442 132.942 213.383 132.865C213.361 132.842 213.336 132.821 213.308 132.806C210.988 131.086 209.834 129.443 209.874 127.932C209.888 127.618 209.925 127.305 209.983 126.995C210.218 126.136 210.157 125.222 209.809 124.402C209.476 123.765 208.954 123.247 208.314 122.919L210.601 119.53C210.972 119.726 211.346 119.941 211.724 120.177Z" fill="#231F20"/>
<defs>
<clipPath id="clip0_1546_1281">
<rect width="291" height="232.393" fill="white" transform="translate(13 26)"/>
</clipPath>
<clipPath id="clip1_1546_1281">
<rect width="124.939" height="231.86" fill="white" transform="translate(187 26)"/>
</clipPath>
<clipPath id="clip2_1546_1281">
<rect width="37" height="9.18208" fill="white" transform="translate(214 119.117)"/>
</clipPath>
<clipPath id="clip3_1546_1281">
<rect width="37" height="9.18208" fill="white" transform="translate(214 119.372)"/>
</clipPath>
</defs>
</svg>
