<svg width="325" height="276" viewBox="0 0 325 276" fill="none" xmlns="http://www.w3.org/2000/svg">
<g clip-path="url(#clip0_1546_1280)">
<path d="M24.7496 256.472C21.0287 243.969 15.023 217.375 23.3057 186.054C26.5664 173.709 37.0863 133.914 74.6359 114.652C79.0073 112.406 109.417 97.3484 143.507 108.043C188.768 122.244 183.357 163.903 229.095 178.937C258.639 188.648 279.076 177.239 295.435 195.455C302.685 203.68 307.073 214.033 307.941 224.963C308.81 235.893 306.111 246.809 300.251 256.075L24.7496 256.472Z" fill="#EDEDED"/>
<path d="M86.5044 13.5224V153.598C86.5034 153.873 86.5565 154.145 86.6608 154.4C86.7651 154.654 86.9185 154.886 87.1122 155.081C87.306 155.276 87.5363 155.431 87.79 155.537C88.0437 155.644 88.3159 155.699 88.5909 155.7H178.867C179.142 155.699 179.414 155.644 179.668 155.537C179.922 155.431 180.152 155.276 180.346 155.081C180.539 154.886 180.693 154.654 180.797 154.4C180.901 154.145 180.955 153.873 180.954 153.598V13.5224C180.956 13.2467 180.903 12.9733 180.799 12.7179C180.696 12.4625 180.542 12.23 180.349 12.034C180.155 11.8379 179.924 11.682 179.67 11.5753C179.416 11.4686 179.143 11.4131 178.867 11.4121H88.5909C88.0347 11.4163 87.5028 11.6407 87.1118 12.0363C86.7207 12.4318 86.5023 12.9662 86.5044 13.5224Z" fill="#231F20"/>
<path d="M89.3526 12.1025V151.733C89.3546 152.036 89.4757 152.325 89.6895 152.539C89.9033 152.753 90.1927 152.874 90.495 152.876H180.755C181.058 152.874 181.347 152.753 181.561 152.539C181.775 152.325 181.896 152.036 181.898 151.733V12.1025C181.899 11.9518 181.87 11.8024 181.813 11.6629C181.756 11.5234 181.672 11.3965 181.566 11.2896C181.46 11.1826 181.333 11.0978 181.194 11.0399C181.055 10.982 180.906 10.9521 180.755 10.9521H90.495C90.3443 10.9521 90.1951 10.982 90.056 11.0399C89.9168 11.0978 89.7905 11.1826 89.6844 11.2896C89.5782 11.3965 89.4942 11.5234 89.4372 11.6629C89.3803 11.8024 89.3515 11.9518 89.3526 12.1025Z" fill="white"/>
<path d="M88.4246 12.1024V151.733C88.4267 152.288 88.648 152.82 89.0403 153.212C89.4327 153.604 89.9642 153.826 90.519 153.828H180.755C181.311 153.828 181.844 153.607 182.236 153.214C182.629 152.821 182.85 152.289 182.85 151.733V12.1024C182.851 11.8267 182.798 11.5535 182.693 11.2984C182.588 11.0434 182.434 10.8116 182.239 10.6163C182.045 10.4209 181.813 10.2659 181.559 10.1602C181.304 10.0544 181.031 10 180.755 10H90.4952C89.9432 10.0083 89.4165 10.2335 89.0291 10.6269C88.6416 11.0203 88.4245 11.5503 88.4246 12.1024ZM89.3766 12.1024C89.3755 11.9517 89.4043 11.8023 89.4613 11.6628C89.5182 11.5232 89.6022 11.3964 89.7084 11.2894C89.8146 11.1825 89.9409 11.0977 90.08 11.0397C90.2191 10.9818 90.3683 10.952 90.519 10.952H180.755C180.906 10.952 181.055 10.9818 181.194 11.0397C181.334 11.0977 181.46 11.1825 181.566 11.2894C181.672 11.3964 181.756 11.5232 181.813 11.6628C181.87 11.8023 181.899 11.9517 181.898 12.1024V151.733C181.896 152.036 181.775 152.325 181.561 152.539C181.347 152.753 181.058 152.874 180.755 152.876H90.4952C90.1929 152.874 89.9035 152.753 89.6897 152.539C89.4759 152.325 89.3549 152.036 89.3528 151.733L89.3766 12.1024Z" fill="#231F20"/>
<path d="M63.5845 33.5076V77.055C63.5847 77.3031 63.6558 77.5459 63.7895 77.7549C63.9232 77.9639 64.1138 78.1304 64.339 78.2346C64.5641 78.3388 64.8143 78.3765 65.0602 78.3432C65.306 78.3099 65.5372 78.207 65.7265 78.0467L75.0643 70.1131C75.6911 69.5948 76.4804 69.3139 77.2937 69.3198H158.049C158.664 69.3198 159.253 69.0757 159.688 68.6413C160.122 68.2068 160.366 67.6176 160.366 67.0032V33.5076C160.366 32.8925 160.122 32.3025 159.688 31.8667C159.254 31.431 158.665 31.1852 158.049 31.1831H65.9011C65.2859 31.1852 64.6967 31.431 64.2625 31.8667C63.8283 32.3025 63.5845 32.8925 63.5845 33.5076Z" fill="white"/>
<path d="M64.1398 78.6575C63.8341 78.5194 63.5744 78.2965 63.3916 78.0153C63.2088 77.734 63.1105 77.4062 63.1084 77.0708V33.5076C63.1084 32.7662 63.4024 32.0551 63.9259 31.5301C64.4493 31.0051 65.1596 30.7091 65.901 30.707H158.049C158.791 30.7091 159.501 31.0051 160.025 31.5301C160.548 32.0551 160.842 32.7662 160.842 33.5076V67.0031C160.84 67.7431 160.545 68.4522 160.022 68.9755C159.499 69.4987 158.789 69.7936 158.049 69.7957H77.3174C76.6119 69.7976 75.9294 70.0475 75.3896 70.5018L66.0518 78.4354C65.7342 78.7097 65.329 78.8617 64.9093 78.8638C64.6399 78.8586 64.3757 78.7878 64.1398 78.6575ZM65.901 31.6908C65.6586 31.6908 65.4186 31.7387 65.1948 31.8317C64.971 31.9246 64.7677 32.0609 64.5967 32.2327C64.4257 32.4044 64.2903 32.6083 64.1983 32.8325C64.1062 33.0567 64.0594 33.2969 64.0604 33.5393V77.0867C64.0476 77.249 64.085 77.4114 64.1676 77.5517C64.2501 77.692 64.3739 77.8036 64.5221 77.8711C64.6702 77.9387 64.8356 77.9591 64.9957 77.9294C65.1558 77.8998 65.3029 77.8216 65.4171 77.7055L74.7549 69.7719C75.4664 69.1748 76.3648 68.8463 77.2936 68.8437H158.049C158.538 68.8437 159.006 68.6498 159.351 68.3046C159.696 67.9594 159.89 67.4913 159.89 67.0031V33.5076C159.884 33.0236 159.687 32.5615 159.343 32.2214C158.998 31.8814 158.533 31.6908 158.049 31.6908H65.901Z" fill="#231F20"/>
<path d="M141.016 60.6717C146.756 60.6717 151.409 56.0186 151.409 50.2787C151.409 44.5388 146.756 39.8857 141.016 39.8857C135.276 39.8857 130.623 44.5388 130.623 50.2787C130.623 56.0186 135.276 60.6717 141.016 60.6717Z" fill="#7373EF"/>
<path d="M141.016 57.6652C141.956 57.6664 142.887 57.482 143.756 57.1226C144.624 56.7632 145.413 56.2358 146.078 55.5707C146.241 55.3891 146.329 55.1516 146.322 54.9073C146.315 54.663 146.215 54.4306 146.042 54.2583C145.868 54.086 145.635 53.987 145.391 53.9817C145.147 53.9764 144.91 54.0653 144.729 54.2299C143.742 55.2129 142.405 55.7648 141.012 55.7648C139.619 55.7648 138.282 55.2129 137.295 54.2299C137.113 54.078 136.88 53.9998 136.643 54.0106C136.406 54.0214 136.181 54.1205 136.013 54.2884C135.845 54.4564 135.746 54.681 135.735 54.9182C135.724 55.1555 135.803 55.3882 135.954 55.5707C136.619 56.2358 137.408 56.7632 138.276 57.1226C139.145 57.482 140.076 57.6664 141.016 57.6652Z" fill="#231F20"/>
<path d="M99.2301 60.6719H120.365C121.031 60.6719 121.571 60.132 121.571 59.466V58.99C121.571 58.324 121.031 57.7841 120.365 57.7841H99.2301C98.5641 57.7841 98.0242 58.324 98.0242 58.99V59.466C98.0242 60.132 98.5641 60.6719 99.2301 60.6719Z" fill="#231F20"/>
<path d="M75.6833 51.7227L120.365 51.7227C121.031 51.7227 121.571 51.1828 121.571 50.5168V50.0407C121.571 49.3747 121.031 48.8348 120.365 48.8348L75.6833 48.8348C75.0173 48.8348 74.4774 49.3747 74.4774 50.0407V50.5168C74.4774 51.1828 75.0173 51.7227 75.6833 51.7227Z" fill="#231F20"/>
<path d="M75.6833 42.7656L120.365 42.7656C121.031 42.7656 121.571 42.2257 121.571 41.5597V41.0837C121.571 40.4177 121.031 39.8778 120.365 39.8778L75.6833 39.8778C75.0173 39.8778 74.4774 40.4177 74.4774 41.0837V41.5597C74.4774 42.2257 75.0173 42.7656 75.6833 42.7656Z" fill="#231F20"/>
<path d="M207.896 93.3899V136.937C207.896 137.185 207.825 137.428 207.691 137.637C207.557 137.846 207.367 138.013 207.142 138.117C206.917 138.221 206.666 138.259 206.42 138.225C206.175 138.192 205.943 138.089 205.754 137.929L196.416 129.995C195.79 129.477 195 129.196 194.187 129.202H113.431C113.127 129.203 112.826 129.144 112.545 129.029C112.264 128.913 112.009 128.743 111.794 128.529C111.578 128.314 111.408 128.059 111.291 127.779C111.174 127.498 111.115 127.197 111.115 126.893V93.3899C111.113 93.0853 111.173 92.7836 111.289 92.5021C111.405 92.2206 111.575 91.9648 111.791 91.7494C112.006 91.5341 112.262 91.3635 112.543 91.2475C112.825 91.1314 113.127 91.0722 113.431 91.0733H205.58C206.194 91.0733 206.783 91.3173 207.218 91.7518C207.652 92.1862 207.896 92.7755 207.896 93.3899Z" fill="white"/>
<path d="M206.587 138.714C206.169 138.715 205.766 138.562 205.453 138.286L196.107 130.352C195.571 129.897 194.89 129.647 194.187 129.646H113.431C112.698 129.644 111.995 129.355 111.472 128.84C110.95 128.325 110.651 127.626 110.638 126.893V93.3898C110.641 92.6498 110.935 91.9407 111.459 91.4174C111.982 90.8942 112.691 90.5993 113.431 90.5972H205.579C206.319 90.5993 207.029 90.8942 207.552 91.4174C208.075 91.9407 208.37 92.6498 208.372 93.3898V136.937C208.369 137.272 208.27 137.6 208.088 137.881C207.905 138.162 207.646 138.385 207.341 138.524C207.106 138.642 206.849 138.707 206.587 138.714ZM113.431 91.5413C112.941 91.5434 112.472 91.7388 112.126 92.085C111.78 92.4312 111.585 92.9002 111.583 93.3898V126.893C111.585 127.383 111.78 127.852 112.126 128.198C112.472 128.544 112.941 128.74 113.431 128.742H194.187C195.117 128.74 196.017 129.069 196.726 129.67L206.063 137.604C206.178 137.72 206.326 137.799 206.487 137.828C206.648 137.858 206.814 137.837 206.963 137.768C207.111 137.7 207.235 137.587 207.317 137.445C207.399 137.303 207.435 137.14 207.42 136.977V93.3898C207.42 92.9009 207.226 92.4319 206.881 92.0855C206.536 91.739 206.068 91.5434 205.579 91.5413H113.431Z" fill="#231F20"/>
<path d="M130.465 120.555C136.204 120.555 140.857 115.901 140.857 110.162C140.857 104.422 136.204 99.7686 130.465 99.7686C124.725 99.7686 120.072 104.422 120.072 110.162C120.072 115.901 124.725 120.555 130.465 120.555Z" fill="#7373EF"/>
<path d="M130.472 117.548C129.533 117.55 128.602 117.367 127.734 117.009C126.865 116.651 126.076 116.125 125.411 115.461C125.235 115.281 125.137 115.039 125.137 114.787C125.137 114.535 125.235 114.293 125.411 114.113C125.499 114.024 125.604 113.953 125.72 113.905C125.836 113.857 125.96 113.833 126.085 113.833C126.21 113.833 126.335 113.857 126.45 113.905C126.566 113.953 126.671 114.024 126.759 114.113C127.745 115.095 129.081 115.647 130.472 115.647C131.864 115.647 133.199 115.095 134.185 114.113C134.364 113.934 134.607 113.833 134.86 113.833C135.113 113.833 135.355 113.934 135.534 114.113C135.713 114.291 135.813 114.534 135.813 114.787C135.813 115.04 135.713 115.282 135.534 115.461C134.869 116.125 134.08 116.651 133.211 117.009C132.343 117.367 131.412 117.55 130.472 117.548Z" fill="#231F20"/>
<path d="M172.251 117.667H151.116C150.45 117.667 149.91 118.206 149.91 118.872V119.348C149.91 120.014 150.45 120.554 151.116 120.554H172.251C172.917 120.554 173.456 120.014 173.456 119.348V118.872C173.456 118.206 172.917 117.667 172.251 117.667Z" fill="#231F20"/>
<path d="M195.797 108.718H151.116C150.45 108.718 149.91 109.258 149.91 109.924V110.4C149.91 111.066 150.45 111.606 151.116 111.606H195.797C196.463 111.606 197.003 111.066 197.003 110.4V109.924C197.003 109.258 196.463 108.718 195.797 108.718Z" fill="#231F20"/>
<path d="M195.797 99.7607H151.116C150.45 99.7607 149.91 100.301 149.91 100.967V101.443C149.91 102.109 150.45 102.649 151.116 102.649H195.797C196.463 102.649 197.003 102.109 197.003 101.443V100.967C197.003 100.301 196.463 99.7607 195.797 99.7607Z" fill="#231F20"/>
<path d="M238.877 238.741L238.408 248.872L231.927 248.007L232.871 236.091L238.877 238.741Z" fill="white"/>
<path d="M238.369 249.3L231.895 248.443C231.784 248.428 231.684 248.371 231.613 248.284C231.542 248.197 231.507 248.087 231.514 247.975L232.458 236.075C232.465 236.005 232.488 235.938 232.525 235.879C232.563 235.82 232.613 235.77 232.673 235.734C232.735 235.701 232.804 235.683 232.875 235.683C232.946 235.683 233.015 235.701 233.077 235.734L239.083 238.384C239.163 238.419 239.231 238.479 239.276 238.554C239.322 238.629 239.343 238.717 239.337 238.804L238.869 248.935C238.863 249.048 238.814 249.153 238.733 249.232C238.652 249.31 238.545 249.354 238.432 249.356L238.369 249.3ZM233.291 236.741L232.427 247.626L237.98 248.372L238.417 239.018L233.291 236.741Z" fill="#231F20"/>
<path d="M280.956 240.788L282.107 247.079H276.442L275.157 239.336L280.956 240.788Z" fill="white"/>
<path d="M276.006 247.15L274.728 239.399C274.717 239.328 274.723 239.254 274.747 239.186C274.771 239.118 274.812 239.056 274.865 239.007C274.919 238.959 274.984 238.924 275.054 238.906C275.124 238.889 275.198 238.889 275.268 238.907L281.067 240.359C281.149 240.381 281.222 240.426 281.28 240.487C281.337 240.549 281.376 240.625 281.393 240.708L282.535 247C282.548 247.063 282.547 247.128 282.531 247.19C282.516 247.253 282.486 247.311 282.445 247.361C282.404 247.41 282.352 247.45 282.294 247.477C282.235 247.503 282.171 247.517 282.107 247.515H276.45C276.345 247.517 276.242 247.481 276.161 247.414C276.08 247.347 276.025 247.254 276.006 247.15ZM280.575 241.137L275.704 239.915L276.815 246.635H281.575L280.575 241.137Z" fill="#231F20"/>
<path d="M274.681 247.103V253.83H297.196C297.156 253.481 297.01 253.152 296.777 252.888C296.545 252.625 296.237 252.438 295.895 252.355C291.113 251.16 286.608 249.047 282.63 246.135H275.657C275.528 246.13 275.4 246.152 275.28 246.199C275.16 246.246 275.051 246.317 274.96 246.408C274.869 246.499 274.797 246.607 274.749 246.727C274.701 246.846 274.678 246.974 274.681 247.103Z" fill="#231F20"/>
<path d="M216.56 254.037H239.757C239.702 251.768 239.654 249.499 239.599 247.222C239.59 246.966 239.483 246.723 239.3 246.544C239.117 246.365 238.871 246.264 238.615 246.262C236.044 246.262 233.466 246.198 230.903 246.159C230.647 246.158 230.398 246.245 230.197 246.405C228.531 247.738 226.734 248.899 224.834 249.872C222.62 251.001 220.279 251.864 217.861 252.442C217.499 252.529 217.176 252.732 216.941 253.02C216.706 253.308 216.572 253.665 216.56 254.037Z" fill="#231F20"/>
<path d="M274.681 253.831V255.076H297.212V254.013C297.22 253.952 297.22 253.891 297.212 253.831H274.681Z" fill="#231F20"/>
<path d="M216.56 254.037V255.1L239.789 255.362C239.789 254.925 239.789 254.481 239.789 254.037H216.56Z" fill="#231F20"/>
<path d="M282.638 242.128L274.07 175.693L267.684 113.113H232.855L231.181 182.992V241.01L240.329 242.311L246.136 180.739C247.601 169.489 249.071 158.239 250.547 146.989C253.424 158.736 256.307 170.486 259.195 182.238C263.897 202.262 268.599 222.287 273.3 242.311L282.638 242.128Z" fill="#231F20"/>
<path d="M244.121 55.769C244.747 56.1498 246.009 56.5623 248.508 55.6182L247.516 66.4L255.823 69.1529L259.901 65.6859C258.545 60.0592 258.161 54.242 258.766 48.4859C260.702 47.6926 261.94 46.2487 261.821 44.9158C261.805 44.6109 261.727 44.3123 261.59 44.0392C261.454 43.7661 261.262 43.5243 261.027 43.3291C260.707 43.1251 260.345 42.9974 259.968 42.9561C259.591 42.9149 259.21 42.9611 258.853 43.0911C258.441 41.3695 258.06 39.64 257.624 37.9184L250.42 37.4186L243.224 36.7998C243.034 38.6087 242.812 41.1315 242.669 44.1542C242.177 53.8014 243.208 55.2057 244.121 55.769Z" fill="white"/>
<path d="M255.672 69.5656L247.382 66.8126C247.288 66.7825 247.207 66.7213 247.152 66.6392C247.097 66.5571 247.072 66.4588 247.08 66.3604L248.008 56.2848C246.287 56.8322 244.906 56.7925 243.891 56.1737C242.78 55.4835 241.725 53.992 242.185 44.1544C242.304 41.6712 242.494 39.188 242.748 36.7682C242.76 36.6537 242.817 36.5486 242.906 36.4758C242.995 36.403 243.11 36.3684 243.224 36.3795L250.412 36.9983L257.608 37.4902C257.702 37.4952 257.793 37.5314 257.864 37.5932C257.936 37.6549 257.985 37.7386 258.005 37.8313L259.139 42.5915C259.5 42.5151 259.872 42.5129 260.234 42.5852C260.595 42.6575 260.938 42.8027 261.241 43.0119C261.539 43.2396 261.783 43.5293 261.957 43.8608C262.131 44.1924 262.231 44.5579 262.249 44.9319C262.368 46.3996 261.138 47.9466 259.171 48.8431C258.877 51.7272 258.838 54.6314 259.052 57.5224C259.253 60.2578 259.678 62.9722 260.321 65.6385C260.34 65.7173 260.337 65.7999 260.312 65.877C260.287 65.954 260.24 66.0225 260.178 66.0748L256.101 69.5418C256.021 69.6093 255.919 69.6458 255.815 69.6449C255.763 69.6274 255.714 69.6005 255.672 69.5656ZM258.203 57.5304C257.987 54.5038 258.038 51.4642 258.354 48.4464C258.361 48.3667 258.39 48.2905 258.437 48.2261C258.485 48.1618 258.549 48.1117 258.623 48.0815C260.377 47.3516 261.495 46.0902 261.408 44.9081C261.397 44.6599 261.334 44.4168 261.222 44.1952C261.109 43.9736 260.951 43.7784 260.758 43.6228C260.495 43.4649 260.201 43.3672 259.897 43.3371C259.592 43.3069 259.284 43.3449 258.996 43.4483C258.94 43.474 258.879 43.4872 258.818 43.4872C258.756 43.4872 258.695 43.474 258.639 43.4483C258.585 43.4178 258.538 43.3768 258.499 43.3278C258.461 43.2788 258.433 43.2226 258.417 43.1627L257.259 38.2994L250.38 37.8234L243.573 37.2442C243.343 39.5132 243.177 41.8298 243.066 44.1464C242.645 53.0796 243.486 54.8409 244.351 55.3724C245.247 55.9278 246.588 55.8643 248.318 55.19C248.387 55.1634 248.462 55.1546 248.535 55.1643C248.608 55.174 248.678 55.2019 248.738 55.2455C248.797 55.2931 248.843 55.3539 248.873 55.4228C248.904 55.4918 248.917 55.567 248.913 55.6422L247.953 66.0748L255.68 68.6374L259.361 65.4639C258.769 62.8537 258.381 60.2011 258.203 57.5304Z" fill="#231F20"/>
<path d="M206.135 69.0575C206.041 68.2692 205.673 67.5389 205.096 66.9947C204.12 66.1459 202.938 66.3918 201.874 66.1538C200.692 65.8999 199.122 64.8923 197.662 61.3936C197.56 61.252 197.493 61.0883 197.467 60.9159C197.441 60.7435 197.456 60.5674 197.511 60.4019C197.608 60.2548 197.738 60.1328 197.891 60.0458C198.044 59.9589 198.216 59.9097 198.392 59.9021C199.439 59.7673 199.978 61.0208 201.343 61.8855C203.176 63.0597 205.635 63.4722 206.103 62.7423C206.571 62.0125 204.961 60.5527 205.31 60.2433C205.659 59.9339 208.777 61.7031 209.721 63.8768C209.816 64.099 210.102 64.7971 210.379 65.6778C210.593 66.3601 210.744 66.9392 210.839 67.3518L206.135 69.0575Z" fill="white"/>
<path d="M205.913 69.4384C205.856 69.4061 205.808 69.3615 205.771 69.308C205.734 69.2544 205.709 69.1933 205.699 69.129C205.626 68.4421 205.311 67.8036 204.81 67.3281C204.236 66.9134 203.542 66.6988 202.835 66.7172C202.48 66.6985 202.127 66.6534 201.779 66.5823C200.01 66.2015 198.495 64.5196 197.273 61.5921C197.131 61.3915 197.042 61.1584 197.015 60.9143C196.987 60.6702 197.021 60.4231 197.114 60.1958C197.239 59.9795 197.417 59.7984 197.63 59.6693C197.844 59.5403 198.087 59.4676 198.336 59.458C199.201 59.3469 199.772 59.9102 200.375 60.4973C200.742 60.8703 201.143 61.2076 201.573 61.5048C203.445 62.7028 205.54 62.8139 205.762 62.4806C205.865 62.3299 205.413 61.608 205.262 61.3699C204.921 60.8146 204.596 60.2989 204.992 59.9181C205.088 59.8332 205.204 59.7747 205.33 59.7483C205.455 59.7219 205.585 59.7284 205.707 59.7674C207.625 60.4818 209.2 61.9002 210.11 63.7341C210.363 64.3385 210.586 64.9555 210.776 65.5827C210.959 66.146 211.117 66.7172 211.252 67.2805C211.276 67.3855 211.261 67.4957 211.21 67.5905C211.159 67.6854 211.075 67.7585 210.974 67.7961L206.286 69.5177C206.236 69.5253 206.185 69.5253 206.135 69.5177C206.055 69.5126 205.978 69.4851 205.913 69.4384ZM209.943 65.8048C209.665 64.9321 209.388 64.2181 209.3 64.0436C208.552 62.6192 207.368 61.4713 205.921 60.767L206.008 60.9019C206.413 61.5524 206.92 62.3616 206.476 62.9884C205.754 64.0198 202.946 63.4247 201.105 62.2426C200.619 61.9227 200.169 61.5502 199.764 61.1319C199.185 60.5687 198.86 60.2751 198.447 60.3386C198.344 60.3361 198.241 60.3578 198.148 60.4018C198.054 60.4459 197.972 60.5112 197.908 60.5925C197.885 60.6868 197.884 60.785 197.905 60.8798C197.925 60.9746 197.967 61.0635 198.027 61.1399C198.045 61.1666 198.058 61.1961 198.066 61.2271C199.177 63.8928 200.494 65.4081 201.97 65.7334C202.279 65.795 202.591 65.8348 202.906 65.8524C203.797 65.8314 204.669 66.1108 205.381 66.6458C205.919 67.1226 206.296 67.7546 206.46 68.4546L210.3 67.0504C210.2 66.6431 210.081 66.2279 209.943 65.8048Z" fill="#231F20"/>
<path d="M205.786 68.5973L213.378 100.125C213.519 100.682 213.813 101.189 214.225 101.589C214.638 101.989 215.153 102.267 215.714 102.391C216.275 102.516 216.86 102.481 217.403 102.293C217.946 102.104 218.426 101.769 218.789 101.323L231.832 85.4561C232.371 91.4618 232.736 97.8166 232.855 104.497C232.855 104.909 232.855 105.29 232.855 105.734C232.855 106.179 232.855 106.797 232.855 107.321V110.494C232.855 111.026 232.855 111.558 232.855 112.081C232.855 113.049 232.855 114.009 232.807 114.961C244.338 117.727 256.346 117.847 267.929 115.31C267.755 114.049 267.604 112.692 267.477 111.248C267.429 110.685 267.39 110.106 267.35 109.511C267.295 108.63 267.255 107.726 267.223 106.789V106.631C267.223 106.012 267.223 105.401 267.223 104.806C267.223 102.482 267.295 100.395 267.422 98.61L276.942 103.108C277.722 103.483 278.589 103.637 279.45 103.556C280.311 103.475 281.134 103.16 281.83 102.646C282.526 102.132 283.068 101.438 283.399 100.639C283.731 99.8399 283.838 98.9656 283.709 98.1102C282.249 89.6953 280.787 81.2751 279.322 72.8497C279.085 71.4922 278.545 70.2055 277.743 69.0849C276.941 67.9642 275.897 67.0384 274.689 66.3759L259.218 57.8711C259.052 59.095 258.456 60.2198 257.536 61.0445C256.49 61.9193 255.154 62.3695 253.792 62.306C252.509 62.2872 251.267 61.8602 250.244 61.087C249.221 60.3137 248.471 59.2344 248.103 58.006L232.331 63.8768C231.37 64.2505 230.558 64.9309 230.023 65.8126L218.646 84.5279C216.266 78.6465 213.886 72.7677 211.506 66.8916L205.786 68.5973ZM268.231 91.446C268.58 89.288 269.024 86.9397 269.675 84.4485C270.658 87.3469 271.645 90.2427 272.634 93.1358L268.231 91.446Z" fill="#7373EF"/>
<path d="M242.066 39.2038C239.202 36.8237 238.694 35.1338 238.893 33.9517C239.186 32.1191 241.471 29.866 241.447 29.9056C244.319 27.4462 246.604 27.0178 248.151 27.0654C250.634 27.1527 250.92 28.4697 254.768 29.1757C257.997 29.7708 259.29 29.1123 260.702 30.3499C261.44 31.0005 261.805 31.9366 262.535 33.9121C263.264 35.8875 263.677 36.9506 263.518 38.0931C263.219 39.6972 262.379 41.1504 261.138 42.2106C260.311 42.7645 259.631 43.5103 259.155 44.3844C258.963 44.8015 258.838 45.2458 258.782 45.7014C258.285 44.494 257.975 43.2179 257.862 41.9171C257.827 41.3887 257.827 40.8587 257.862 40.3303C257.872 40.0807 257.791 39.8358 257.635 39.6406C257.48 39.4454 257.258 39.3128 257.013 39.2672C254.736 38.8309 249.762 40.5128 243.867 39.6243C243.26 39.5157 242.659 39.3753 242.066 39.2038Z" fill="#231F20"/>
<path d="M252.951 45.9076C252.856 46.582 252.467 47.0818 252.094 47.0262C251.721 46.9707 251.499 46.3836 251.602 45.7093C251.705 45.0349 252.086 44.5351 252.459 44.5906C252.832 44.6462 253.054 45.2333 252.951 45.9076Z" fill="#231F20"/>
<path d="M246.533 45.1142C246.429 45.7806 246.041 46.2883 245.668 46.2328C245.295 46.1773 245.073 45.5902 245.176 44.9158C245.279 44.2415 245.668 43.7417 246.041 43.7893C246.414 43.8369 246.636 44.4398 246.533 45.1142Z" fill="#231F20"/>
<path d="M246.675 51.0884C248.047 51.4181 249.447 51.6173 250.856 51.6834C250.781 51.9452 250.654 52.1891 250.483 52.4005C250.311 52.6118 250.098 52.7861 249.857 52.9129C249.616 53.0397 249.352 53.1163 249.08 53.1382C248.809 53.16 248.536 53.1266 248.278 53.04C247.831 52.9408 247.43 52.6946 247.14 52.3408C246.849 51.987 246.686 51.546 246.675 51.0884Z" fill="#231F20"/>
<path d="M254.744 44.313C254.817 44.3113 254.889 44.2894 254.95 44.2495C254.99 44.224 255.025 44.1904 255.052 44.151C255.079 44.1116 255.097 44.0671 255.106 44.0202C255.115 43.9734 255.114 43.9252 255.104 43.8787C255.093 43.8322 255.073 43.7883 255.045 43.7497C254.658 43.1869 254.114 42.7497 253.481 42.4918C252.848 42.2338 252.154 42.1665 251.483 42.2979C251.437 42.3099 251.394 42.3308 251.357 42.3594C251.319 42.388 251.287 42.4238 251.263 42.4646C251.239 42.5055 251.223 42.5507 251.217 42.5977C251.211 42.6446 251.213 42.6924 251.225 42.7382C251.237 42.784 251.258 42.8271 251.287 42.8648C251.315 42.9026 251.351 42.9344 251.392 42.9583C251.433 42.9823 251.478 42.9979 251.525 43.0044C251.572 43.0109 251.62 43.008 251.666 42.996C252.191 42.9019 252.732 42.9611 253.225 43.1665C253.717 43.3719 254.14 43.7149 254.442 44.1543C254.476 44.2033 254.521 44.2434 254.573 44.271C254.626 44.2987 254.685 44.3131 254.744 44.313Z" fill="#231F20"/>
<path d="M247.984 42.9242C248.035 42.9248 248.086 42.9144 248.132 42.8939C248.179 42.8734 248.22 42.8431 248.254 42.8052C248.289 42.7726 248.316 42.7332 248.335 42.6896C248.354 42.6459 248.364 42.5989 248.364 42.5514C248.364 42.5038 248.354 42.4568 248.335 42.4131C248.316 42.3695 248.289 42.3301 248.254 42.2975C246.58 40.8377 244.501 41.9484 244.414 41.996C244.371 42.0167 244.334 42.0462 244.303 42.0824C244.272 42.1186 244.249 42.1609 244.236 42.2064C244.222 42.252 244.219 42.2998 244.225 42.3469C244.231 42.394 244.247 42.4393 244.271 42.48C244.32 42.5641 244.399 42.6261 244.492 42.6528C244.586 42.6795 244.686 42.6687 244.771 42.6228C245.239 42.3658 245.77 42.2494 246.302 42.2874C246.834 42.3254 247.344 42.5162 247.77 42.837C247.832 42.8863 247.906 42.9166 247.984 42.9242Z" fill="#231F20"/>
<path d="M249.182 49.8741C249.257 49.8739 249.329 49.851 249.39 49.8085C249.451 49.7659 249.498 49.7058 249.524 49.6361C249.54 49.5914 249.547 49.5438 249.544 49.4963C249.542 49.4487 249.53 49.4021 249.509 49.3592C249.489 49.3164 249.46 49.2781 249.424 49.2466C249.388 49.2151 249.347 49.1911 249.301 49.176L247.445 48.5333C249.262 45.5265 249.286 45.4551 249.301 45.4075C249.316 45.3627 249.322 45.3154 249.319 45.2684C249.315 45.2214 249.302 45.1755 249.281 45.1334C249.259 45.0914 249.23 45.054 249.194 45.0234C249.158 44.9928 249.116 44.9697 249.071 44.9553C248.986 44.9252 248.892 44.928 248.808 44.9632C248.725 44.9984 248.657 45.0634 248.619 45.1457C248.516 45.3361 247.35 47.2798 246.588 48.5492C246.564 48.5973 246.552 48.6503 246.552 48.7039C246.552 48.7576 246.564 48.8105 246.588 48.8586C246.609 48.9074 246.639 48.9514 246.678 48.9882C246.716 49.025 246.761 49.0538 246.81 49.0728L249.087 49.8662C249.118 49.8735 249.15 49.8762 249.182 49.8741Z" fill="#231F20"/>
<path d="M251.666 73.7384L254.744 94.1673C254.756 94.2535 254.75 94.3414 254.726 94.4249C254.701 94.5085 254.659 94.5857 254.601 94.6513C254.544 94.7169 254.473 94.7693 254.394 94.8049C254.314 94.8405 254.228 94.8584 254.141 94.8575H238.464C238.319 94.8574 238.178 94.8054 238.068 94.7109C237.957 94.6164 237.884 94.4855 237.861 94.3419L234.783 73.9129C234.77 73.8267 234.777 73.7388 234.801 73.6553C234.826 73.5717 234.868 73.4945 234.925 73.4289C234.983 73.3633 235.054 73.3109 235.133 73.2753C235.213 73.2397 235.299 73.2218 235.386 73.2227H251.063C251.208 73.2228 251.349 73.2748 251.459 73.3693C251.57 73.4639 251.643 73.5947 251.666 73.7384Z" fill="white"/>
<path d="M237.425 94.4052L234.355 73.9684C234.336 73.8268 234.348 73.683 234.389 73.5463C234.43 73.4096 234.499 73.2831 234.593 73.175C234.69 73.0603 234.812 72.9682 234.949 72.9052C235.086 72.8422 235.235 72.8097 235.386 72.8101H251.063C251.312 72.8088 251.554 72.8968 251.745 73.0583C251.936 73.2198 252.062 73.4441 252.102 73.6907L255.18 94.1196C255.202 94.2682 255.191 94.4197 255.149 94.5638C255.107 94.7078 255.033 94.841 254.935 94.9541C254.836 95.0672 254.714 95.1575 254.577 95.2189C254.44 95.2803 254.291 95.3113 254.141 95.3097H238.464C238.211 95.3101 237.966 95.2187 237.775 95.0524C237.584 94.8861 237.459 94.6562 237.425 94.4052ZM251.237 73.778C251.228 73.7388 251.206 73.704 251.174 73.6795C251.142 73.6549 251.103 73.642 251.063 73.6431H235.386C235.362 73.6415 235.338 73.6458 235.316 73.6554C235.294 73.6651 235.274 73.6799 235.259 73.6986C235.243 73.715 235.23 73.7351 235.224 73.7572C235.217 73.7793 235.215 73.8028 235.219 73.8256L238.298 94.2545C238.305 94.293 238.326 94.3276 238.356 94.3523C238.387 94.377 238.425 94.3901 238.464 94.3894H254.141C254.166 94.3899 254.191 94.3852 254.214 94.3757C254.237 94.3661 254.258 94.3519 254.276 94.3339C254.29 94.2955 254.29 94.2532 254.276 94.2148L251.205 73.778H251.237Z" fill="#231F20"/>
<path d="M243.914 85.6624C244.83 85.6624 245.573 84.9343 245.573 84.0361C245.573 83.1378 244.83 82.4097 243.914 82.4097C242.999 82.4097 242.256 83.1378 242.256 84.0361C242.256 84.9343 242.999 85.6624 243.914 85.6624Z" fill="white"/>
<path d="M241.82 84.0525C241.814 83.6369 241.931 83.2289 242.157 82.8803C242.384 82.5317 242.709 82.2584 243.091 82.095C243.473 81.9316 243.895 81.8855 244.303 81.9627C244.712 82.0399 245.088 82.2368 245.384 82.5285C245.68 82.8201 245.883 83.1932 245.966 83.6003C246.05 84.0074 246.01 84.4302 245.852 84.8147C245.695 85.1993 245.426 85.5283 245.081 85.7599C244.736 85.9915 244.33 86.1151 243.915 86.1152C243.364 86.1173 242.835 85.9017 242.442 85.5153C242.05 85.1289 241.826 84.6031 241.82 84.0525ZM242.701 84.0525C242.696 84.2935 242.763 84.5305 242.894 84.7332C243.024 84.9359 243.212 85.0952 243.433 85.1907C243.655 85.2863 243.899 85.3137 244.136 85.2696C244.373 85.2255 244.592 85.1118 244.764 84.943C244.936 84.7743 245.054 84.558 245.103 84.322C245.152 84.0859 245.129 83.8406 245.038 83.6174C244.947 83.3942 244.791 83.2032 244.591 83.0688C244.391 82.9343 244.156 82.8625 243.915 82.8624C243.596 82.8603 243.29 82.9842 243.062 83.2072C242.835 83.4302 242.705 83.734 242.701 84.0525Z" fill="#231F20"/>
<path d="M257.656 88.3759C256.112 88.0634 254.748 87.1684 253.847 85.8768C253.743 85.7338 253.609 85.6151 253.454 85.5289C253.299 85.4426 253.128 85.3908 252.951 85.377C251.697 85.3055 250.486 84.8971 249.444 84.1949C247.794 83.4015 247.572 82.148 246.43 82.2353C246.075 82.2673 245.74 82.4087 245.47 82.6399C244.581 83.4332 244.97 85.02 245.136 85.7578C245.495 87.1388 246.241 88.3886 247.286 89.3596C248.148 90.1951 249.164 90.8553 250.277 91.3033C250.59 91.4252 250.927 91.474 251.261 91.4462C251.705 91.4098 252.15 91.4098 252.594 91.4462C253.751 91.5263 254.88 91.8336 255.918 92.3506L257.656 88.3759Z" fill="white"/>
<path d="M255.72 92.7312C254.731 92.2325 253.651 91.9384 252.546 91.8665C252.127 91.8308 251.705 91.8308 251.285 91.8665C250.882 91.9041 250.477 91.8443 250.103 91.6919C248.918 91.2331 247.839 90.5395 246.929 89.653C245.827 88.6215 245.04 87.2982 244.66 85.837C244.478 85.0436 244.041 83.2665 245.128 82.2986C245.47 81.9999 245.898 81.8191 246.35 81.7829C246.695 81.7782 247.036 81.8556 247.345 82.0087C247.654 82.1619 247.922 82.3863 248.127 82.6635C248.548 83.1184 249.045 83.4969 249.595 83.7822L250.253 84.1313C251.065 84.6268 251.992 84.9004 252.943 84.9246C253.199 84.9344 253.45 85.004 253.674 85.128C253.899 85.252 254.091 85.4269 254.236 85.6386C254.713 86.3245 255.336 86.8962 256.061 87.3126C256.591 87.6165 257.167 87.831 257.767 87.9473C257.83 87.9625 257.89 87.9908 257.942 88.0304C257.994 88.0701 258.037 88.1201 258.068 88.1774C258.096 88.237 258.11 88.302 258.11 88.3678C258.11 88.4336 258.096 88.4985 258.068 88.5582L256.338 92.525C256.314 92.5797 256.279 92.629 256.236 92.6699C256.192 92.7108 256.141 92.7424 256.085 92.763C256.035 92.7742 255.983 92.7742 255.934 92.763C255.861 92.7699 255.787 92.759 255.72 92.7312ZM255.601 88.0663C254.761 87.5869 254.04 86.9254 253.49 86.1305C253.423 86.0401 253.337 85.965 253.239 85.9103C253.14 85.8556 253.031 85.8225 252.919 85.8132C251.845 85.7864 250.797 85.4772 249.881 84.9167L249.246 84.5835C248.614 84.2563 248.043 83.8244 247.556 83.3062C247.096 82.846 246.866 82.6397 246.461 82.6715C246.205 82.7002 245.963 82.8021 245.763 82.965C245.073 83.5838 245.414 85.0357 245.565 85.6545C245.906 86.9539 246.61 88.1291 247.596 89.0421C248.412 89.843 249.38 90.4716 250.444 90.8907C250.694 90.9956 250.967 91.0365 251.237 91.0097C252.768 90.8619 254.31 91.1162 255.712 91.7475L257.052 88.6772C256.546 88.531 256.059 88.3259 255.601 88.0663Z" fill="#231F20"/>
<path d="M259.504 57.9191L260.662 58.4507C260.757 58.4927 260.833 58.5697 260.873 58.6657C260.912 58.7617 260.914 58.8694 260.876 58.9664C260.287 60.4346 259.269 61.6908 257.954 62.571C256.639 63.4511 255.09 63.9141 253.508 63.8995C251.926 63.885 250.385 63.3935 249.087 62.4893C247.789 61.5851 246.793 60.3103 246.231 58.8315C246.212 58.7816 246.204 58.7284 246.206 58.6751C246.208 58.6218 246.221 58.5695 246.244 58.5214C246.267 58.4732 246.3 58.4302 246.34 58.3949C246.38 58.3596 246.426 58.3327 246.477 58.3158L247.516 57.9509C247.736 57.8761 247.976 57.885 248.189 57.9757C248.403 58.0664 248.576 58.2327 248.675 58.4428C249.115 59.3344 249.796 60.085 250.641 60.6099C251.485 61.1348 252.46 61.4129 253.455 61.4129C254.449 61.4129 255.424 61.1348 256.268 60.6099C257.113 60.085 257.794 59.3344 258.235 58.4428C258.283 58.3248 258.355 58.2176 258.445 58.1273C258.535 58.0371 258.642 57.9656 258.76 57.9169C258.878 57.8682 259.005 57.8434 259.132 57.8438C259.26 57.8441 259.386 57.8698 259.504 57.9191Z" fill="#97BCFF"/>
<path d="M258.092 87.5825L261.011 88.6932L258.25 94.2467L255.497 92.9773L258.092 87.5825Z" fill="#97BCFF"/>
<path d="M211.569 66.7251C211.91 67.6613 212.252 68.5895 212.601 69.5256L206.539 71.3583L205.746 68.6529L211.569 66.7251Z" fill="#97BCFF"/>
<path d="M232.871 112.089C233.67 112.043 234.438 111.768 235.085 111.296C235.544 110.957 236.1 110.774 236.671 110.774C237.242 110.774 237.798 110.957 238.258 111.296C238.981 111.792 239.837 112.057 240.713 112.057C241.59 112.057 242.446 111.792 243.169 111.296C243.629 110.959 244.185 110.778 244.756 110.778C245.326 110.778 245.882 110.959 246.342 111.296C247.065 111.792 247.921 112.057 248.798 112.057C249.674 112.057 250.53 111.792 251.253 111.296C251.713 110.957 252.269 110.774 252.84 110.774C253.411 110.774 253.967 110.957 254.427 111.296C255.149 111.792 256.005 112.057 256.882 112.057C257.759 112.057 258.615 111.792 259.337 111.296C259.798 110.959 260.354 110.778 260.924 110.778C261.495 110.778 262.05 110.959 262.511 111.296C263.222 111.815 264.081 112.093 264.962 112.089C265.845 112.091 266.706 111.813 267.422 111.296L267.541 111.217C267.493 110.653 267.454 110.074 267.414 109.479C267.109 109.611 266.817 109.771 266.541 109.955C266.08 110.289 265.524 110.469 264.954 110.469C264.385 110.469 263.829 110.289 263.368 109.955C262.645 109.459 261.789 109.194 260.912 109.194C260.036 109.194 259.18 109.459 258.457 109.955C257.995 110.289 257.44 110.469 256.87 110.469C256.3 110.469 255.745 110.289 255.283 109.955C254.559 109.459 253.702 109.194 252.824 109.194C251.946 109.194 251.089 109.459 250.365 109.955C249.903 110.289 249.348 110.469 248.778 110.469C248.208 110.469 247.653 110.289 247.191 109.955C246.468 109.459 245.612 109.194 244.736 109.194C243.859 109.194 243.003 109.459 242.28 109.955C241.818 110.287 241.263 110.466 240.694 110.466C240.124 110.466 239.569 110.287 239.107 109.955C238.397 109.433 237.537 109.154 236.655 109.162C235.772 109.156 234.91 109.434 234.196 109.955C233.813 110.243 233.356 110.416 232.879 110.455C232.879 111.026 232.879 111.558 232.871 112.089Z" fill="#97BCFF"/>
<path d="M232.871 105.719C232.871 106.25 232.871 106.782 232.871 107.305C233.66 107.266 234.422 107.005 235.069 106.552C235.528 106.213 236.084 106.03 236.655 106.03C237.226 106.03 237.782 106.213 238.242 106.552C238.965 107.048 239.821 107.313 240.698 107.313C241.574 107.313 242.43 107.048 243.153 106.552C243.614 106.215 244.169 106.034 244.74 106.034C245.31 106.034 245.866 106.215 246.326 106.552C247.049 107.048 247.905 107.313 248.782 107.313C249.658 107.313 250.515 107.048 251.237 106.552C251.697 106.213 252.253 106.03 252.824 106.03C253.395 106.03 253.951 106.213 254.411 106.552C255.134 107.048 255.99 107.313 256.866 107.313C257.743 107.313 258.599 107.048 259.322 106.552C259.782 106.215 260.338 106.034 260.908 106.034C261.479 106.034 262.034 106.215 262.495 106.552C263.207 107.071 264.066 107.349 264.947 107.345C265.771 107.364 266.581 107.125 267.263 106.663C267.263 106.044 267.263 105.433 267.263 104.838C267.015 104.954 266.776 105.09 266.549 105.243C266.088 105.577 265.532 105.757 264.962 105.757C264.393 105.757 263.837 105.577 263.376 105.243C262.653 104.747 261.797 104.481 260.92 104.481C260.044 104.481 259.188 104.747 258.465 105.243C258.003 105.577 257.448 105.757 256.878 105.757C256.308 105.757 255.753 105.577 255.291 105.243C254.567 104.747 253.71 104.482 252.832 104.482C251.954 104.482 251.097 104.747 250.373 105.243C249.911 105.577 249.356 105.757 248.786 105.757C248.216 105.757 247.661 105.577 247.199 105.243C246.476 104.747 245.62 104.481 244.744 104.481C243.867 104.481 243.011 104.747 242.288 105.243C241.826 105.575 241.271 105.753 240.702 105.753C240.132 105.753 239.577 105.575 239.115 105.243C238.405 104.72 237.545 104.442 236.663 104.449C235.78 104.444 234.918 104.722 234.204 105.243C233.815 105.527 233.352 105.692 232.871 105.719Z" fill="#97BCFF"/>
<path d="M267.112 98.3882L257.957 94.0327" stroke="#231F20" stroke-width="0.793357" stroke-miterlimit="10" stroke-linecap="round"/>
<path d="M268.231 91.4463L261.011 88.6934" stroke="#231F20" stroke-width="0.793357" stroke-miterlimit="10" stroke-linecap="round"/>
<path d="M269.675 84.4489L268.54 79.8315" stroke="#231F20" stroke-width="0.793357" stroke-miterlimit="10" stroke-linecap="round"/>
<path d="M231.832 85.4326L234.339 82.2354" stroke="#231F20" stroke-width="0.793357" stroke-miterlimit="10" stroke-linecap="round"/>
<path d="M24.1625 216.289C25.3992 216.839 26.5836 217.5 27.7008 218.264C32.1119 221.319 32.6911 224.222 36.7927 226.119C38.0698 226.699 39.4296 227.076 40.823 227.237C43.1346 227.486 45.4716 227.153 47.622 226.269C47.622 226.269 51.208 217.479 34.9283 213.52L34.3571 216.194L33.0481 214.052C31.9003 213.762 30.7093 213.684 29.5335 213.821C27.5359 214.086 25.6643 214.945 24.1625 216.289Z" fill="#7373EF"/>
<path d="M29.4304 185.896C30.4001 189.004 32.1736 191.801 34.5714 194.004C37.0784 196.241 38.792 196.384 42.505 199.621C44.5042 201.374 45.8291 202.564 46.8367 204.555C48.0544 207.07 48.4486 209.904 47.9633 212.655C43.0312 212.124 38.3528 210.197 34.4762 207.102L36.0629 203.96L33.0878 205.729C31.1696 202.842 29.8565 199.596 29.2279 196.187C28.5993 192.778 28.6682 189.277 29.4304 185.896Z" fill="#7373EF"/>
<path d="M52.1283 199.541C39.9186 196.875 35.3647 184.229 35.3647 184.229C35.7297 183.555 41.1245 181.944 41.1245 181.944L33.9843 180.953C33.9843 180.953 32.6514 178.993 33.3813 174.693C34.1112 170.393 31.1837 164.443 31.1837 164.443C35.2213 165.343 39.096 166.861 42.6715 168.941C46.4558 171.147 52.1918 174.495 54.5084 180.961C54.88 182.013 55.1457 183.1 55.3018 184.205L52.8582 187.625L55.5239 186.34C55.6167 190.967 54.4425 195.532 52.1283 199.541Z" fill="#7373EF"/>
<path d="M62.926 206.316C62.926 206.316 52.4378 186.76 79.5389 179.469C79.5389 179.469 76.54 182.809 77.0398 189.323C77.5396 195.836 75.58 196.907 75.58 196.907L70.5184 196.233L74.6835 200.041C74.6835 200.041 69.2649 207.213 62.926 206.316Z" fill="#7373EF"/>
<path d="M80.3084 212.822C80.3084 212.822 62.0612 206.658 62.7673 222.707C62.7673 222.707 68.5509 227.92 73.9854 220.01L72.5573 216.987L75.0723 217.503C75.0723 217.503 78.452 213.322 80.3084 212.822Z" fill="#7373EF"/>
<path d="M56.0792 238.542C55.9899 238.531 55.9089 238.484 55.8539 238.413C55.7989 238.341 55.7744 238.251 55.7856 238.162C58.5148 219.454 73.771 214.361 73.9297 214.361C74.0149 214.336 74.1065 214.345 74.185 214.387C74.2635 214.428 74.3228 214.499 74.3502 214.583C74.3636 214.625 74.3685 214.67 74.3646 214.714C74.3607 214.758 74.348 214.801 74.3273 214.84C74.3067 214.879 74.2784 214.914 74.2442 214.942C74.2099 214.97 74.1705 214.991 74.128 215.004C73.9852 215.051 59.1177 220.01 56.46 238.289C56.4377 238.37 56.387 238.44 56.317 238.487C56.247 238.533 56.1626 238.553 56.0792 238.542Z" fill="#231F20"/>
<path d="M55.762 242.152C55.6743 242.144 55.5932 242.102 55.5355 242.036C55.4778 241.969 55.4481 241.883 55.4526 241.795C56.4615 223.192 61.7474 205.073 70.8992 188.846C70.9496 188.782 71.0215 188.737 71.1018 188.721C71.1821 188.705 71.2655 188.719 71.3367 188.759C71.4079 188.8 71.4622 188.864 71.4897 188.942C71.5172 189.019 71.516 189.103 71.4863 189.18C62.3788 205.314 57.1223 223.334 56.1269 241.835C56.1249 241.879 56.114 241.923 56.0949 241.963C56.0757 242.003 56.0487 242.039 56.0154 242.069C55.9822 242.098 55.9433 242.121 55.9011 242.135C55.8589 242.149 55.8143 242.155 55.7699 242.152H55.762Z" fill="#231F20"/>
<path d="M54.9924 249.562C54.9484 249.555 54.9061 249.54 54.8682 249.517C54.8302 249.493 54.7973 249.463 54.7715 249.426C54.7456 249.39 54.7272 249.349 54.7175 249.306C54.7077 249.262 54.7068 249.217 54.7147 249.173C56.903 235.369 56.5534 221.281 53.6834 207.602C51.8478 198.928 49.0124 190.496 45.2341 182.476C45.2084 182.435 45.1916 182.39 45.1848 182.342C45.178 182.294 45.1814 182.246 45.1947 182.2C45.2079 182.153 45.2309 182.11 45.2619 182.074C45.293 182.037 45.3314 182.007 45.3748 181.986C45.4182 181.965 45.4654 181.954 45.5135 181.953C45.5616 181.951 45.6095 181.96 45.6539 181.979C45.6983 181.997 45.7382 182.025 45.7712 182.06C45.8041 182.095 45.8293 182.137 45.845 182.182C49.6342 190.252 52.4748 198.734 54.3101 207.459C57.1987 221.221 57.5509 235.396 55.3494 249.285C55.3341 249.366 55.2893 249.44 55.2235 249.491C55.1578 249.542 55.0755 249.567 54.9924 249.562Z" fill="#231F20"/>
<path d="M55.6033 243.683C55.5163 243.677 55.4352 243.637 55.3774 243.572C55.3195 243.507 55.2896 243.421 55.2939 243.334C55.4923 234.433 54.0563 217.74 42.1004 205.943C40.198 204.067 38.1115 202.387 35.8726 200.929C35.8356 200.906 35.8035 200.875 35.7783 200.84C35.7531 200.804 35.7352 200.763 35.7256 200.721C35.716 200.678 35.715 200.634 35.7225 200.59C35.73 200.547 35.7459 200.506 35.7694 200.469C35.8182 200.394 35.8947 200.341 35.9823 200.321C36.0699 200.302 36.1616 200.318 36.2375 200.366C38.5196 201.848 40.646 203.557 42.5844 205.467C54.7148 217.439 56.1825 234.345 55.9762 243.35C55.9752 243.395 55.9653 243.439 55.9472 243.48C55.9291 243.521 55.9031 243.558 55.8707 243.589C55.8383 243.62 55.8001 243.644 55.7583 243.66C55.7165 243.677 55.672 243.684 55.6271 243.683H55.6033Z" fill="#231F20"/>
<path d="M57.2852 243.826C57.213 243.822 57.1441 243.794 57.0896 243.747C57.035 243.7 56.9977 243.635 56.9837 243.564C55.8907 238.118 53.3812 233.056 49.7083 228.889C46.0354 224.721 41.3288 221.596 36.0629 219.827C35.9793 219.797 35.9105 219.735 35.8707 219.655C35.8309 219.576 35.823 219.484 35.8487 219.399C35.8808 219.316 35.9425 219.249 36.0216 219.209C36.1008 219.169 36.1918 219.161 36.2771 219.184C41.662 220.987 46.477 224.176 50.2374 228.431C53.9979 232.686 56.571 237.856 57.6977 243.422C57.7166 243.51 57.6996 243.602 57.6505 243.678C57.6014 243.754 57.5242 243.807 57.4359 243.826H57.2852Z" fill="#231F20"/>
<path d="M42.9968 239.955L46.2417 256.552H65.8852L69.13 239.955H42.9968ZM65.1632 255.671H46.9795L44.0758 240.835H68.059L65.1632 255.671Z" fill="#231F20"/>
<path d="M68.0591 240.835L65.1634 255.671H46.9796L44.0759 240.835H68.0591Z" fill="white"/>
<path d="M69.9709 240.399H42.1637L40.5691 234.949H71.5655L69.9709 240.399Z" fill="#231F20"/>
<path d="M313 256.552C313.02 256.947 312.884 257.335 312.621 257.631C312.359 257.928 311.991 258.11 311.596 258.139H14.4042C13.9771 258.139 13.5674 257.969 13.2654 257.667C12.9634 257.365 12.7937 256.955 12.7937 256.528C12.7937 256.101 12.9634 255.691 13.2654 255.389C13.5674 255.087 13.9771 254.917 14.4042 254.917H311.596C311.796 254.932 311.991 254.985 312.17 255.075C312.349 255.165 312.508 255.29 312.639 255.442C312.77 255.594 312.869 255.77 312.931 255.961C312.993 256.151 313.016 256.352 313 256.552Z" fill="#231F20"/>
</g>
<defs>
<clipPath id="clip0_1546_1280">
<rect width="300" height="248.17" fill="white" transform="translate(13 10)"/>
</clipPath>
</defs>
</svg>
