<svg width="21" height="20" viewBox="0 0 21 20" fill="none" xmlns="http://www.w3.org/2000/svg">
<path d="M20.9 17.199L16.8 13.099C17.2 12.099 17 10.799 16.1 9.99902C15.2 9.09902 13.9 8.89902 12.8 9.39902L14.7 11.299L13.3 12.699L11.3 10.699C10.8 11.799 11 13.099 11.9 14.099C12.8 14.999 14 15.199 15 14.799L19.1 18.899C19.3 19.099 19.6 19.099 19.7 18.899L20.7 17.899C21 17.599 21 17.299 20.9 17.199ZM4 3.99902C4 1.79902 5.8 -0.000976562 8 -0.000976562C10.2 -0.000976562 12 1.79902 12 3.99902C12 6.19902 10.2 7.99902 8 7.99902C5.8 7.99902 4 6.19902 4 3.99902ZM11 15.999H0V13.999C0 11.799 3.6 9.99902 8 9.99902C8.5 9.99902 8.9 9.99902 9.4 10.099C9.1 10.699 9 11.299 9 11.999C9 13.599 9.8 15.099 11 15.999Z" fill="#4F85AA"/>
</svg>
